/* XPM */
static char *tuti[] = {
/* columns rows colors chars-per-pixel */
"50 45 41 1 ",
"  c #958976",
". c #968B79",
"X c #998E7C",
"o c #9B917E",
"O c #9E9382",
"+ c #A19685",
"@ c #A29887",
"# c #A59C8B",
"$ c #A99F8E",
"% c #A89F90",
"& c #AAA08F",
"* c #AFA698",
"= c #AFA898",
"- c #B0A796",
"; c #B1A897",
": c #B0A798",
"> c #B8AF9F",
", c #B7B09F",
"< c #B8B09F",
"1 c #B7AFA0",
"2 c #B8AFA0",
"3 c #B7B0A1",
"4 c #BBB3A4",
"5 c #BEB6A8",
"6 c #BFB8AA",
"7 c #C0B6A7",
"8 c #C0B7A9",
"9 c #C2BAAD",
"0 c #C4BCB0",
"q c #C6C0B2",
"w c #CAC2B5",
"e c #CBC4B8",
"r c #CEC9BD",
"t c #D0C8BC",
"y c #D1CBBF",
"u c #D4CEC2",
"i c #D6D2C7",
"p c #D7D3C9",
"a c #DCD7CC",
"s c #DDD8CE",
"d c #DDDAD1",
/* pixels */
"eyiasiupddi99iurreweraaiaa9X  O9rey0:##>49eeeeeeee",
"euuur649up96wreeew90errrrr9>>;*>4*>we9>9wwrewwerre",
"w9wq96440q449wewww49werereere1#O..#4999ereeew00ew0",
"w**5000weq>*>>*#>9*5eeeeeeeee>**>8w99eeee999599944",
"0945qeerree002>>*4weeeereereereerre90ee95460w94445",
">#**1errrrryreee49weeeeeww04*4werww050q990wwe04444",
"*44>4eew0044errre0**4545444>****>*>999werrq5995005",
"9e54>40w96>$*>5ere5944444>***$#   .#>>2>>>**>49iu4",
"0**&*%40ee0**>1errrrq4444<*#+X      ..     ..#*>$O",
"*  X>990ree09wrew09qew5*+@$&#@+O.              .XX",
".  O#>419w0#O4ww4449erw* o$$+@>2*o .X..        o*@",
"#. ##>*XX#4*o>9444440w0>$#*44**#9>O>4@o+#*o     X ",
"*&XO.XXX..#$#e040wwq9>>9ew099ww9weww>#+#*4>$X .   ",
"X@O...#>$+..X*449erreeeerrewweeeeereq98$#qw01:4*X ",
"#. o*;>4*X    #*O*>9eeeweerrrrereew694*#9rrw9>>w5>",
">O#*44,;+     XX ..o*>%#$4werw0q0954>#O#99>O#;#9e>",
"*4we9$o          .##*>>>;#>0w944>>43>44*>4>>40qe9*",
"X@#**X  O$$o .O+OO<444>>>>>>>>&Oo*-O>444941>>44*+O",
"$*O    .OO+Xo*;*##>>$OXX..oO   ..X.O*444>>>454>O@*",
"#+X         #>*###>+OX  +@OOOo$>*#+#>44434>4qw9;XX",
"  ..XX.    .O+OXo+**>*+o>4444444444>342#.oOXoOX  +",
"X @;>>**>*@+>1>&X .+#O.O>444444>$;44>*O  .+X     .",
":O$>4>>44>>***$&+     .$#>4*&44>Xo&;*##@OOOo.X+O  ",
"w97*+O+@@OOoXO@&X      . #@ X$;*@#*3>*>4>>4*#>4*.X",
"rre9>>494>>9445w*O#OoX.   XO#>1>*@>>>Xo;*$>4444*. ",
"eerrrw994449644w9>44>>>*O.O$#@+oXOO$$O$##$>4>;;X  ",
"eeerw52##4444<#*$&#@#$*;;#&->>>#O>44*#**->;&X...Xo",
"eeee99>O.#>>>***oO#o.XoO.X+**@*>>41&#+OoXXXO.O$;>>",
"660w544>**OO#O##$***->>>##&#OX@*1>>->44>>*>*X$42>4",
"4444444444>>2>444444444444444>&*>#OOX#>444>*$O+O*4",
"44444>#>444444444444444444444>&++O #$++*>*..X  .;4",
"44**4>*>444444444444444444444***X #444>$#OOOXXO##>",
"44=>4444444444444444444444444*#**O,4444*#>44>>>4*+",
"4444>44**@>44444>4444444444444444*,4442>>44444444*",
"*><#X++..O2444==>4444444444444444444*@#4444444444>",
";#@OXo$O&*4444>>4>*>4444444444>>-**>&o#44>44444444",
"9#*99544444$*44>$X.O;44444444&...O##oO>44#*4444444",
"44wrrre0659**>#X  oO#444>**>;. .+>*X X>44&X;4444#+",
"rreerrrreew>%OO++#>&*>*+XOoOO@$->#.oo+>4-. @4444>>",
"reeerrrreeee9>444>>@#o  #>>*>4#$$..OOO+**  o>44444",
"eeeerrw9=0ee044444>****+#44444>****>>>>>>X..*44444",
"eeeerw***5ee9446weereer9>44>>444444444444>>*444444",
"rrew>#+990e04449eerrrw0qww995444444444444444444444",
"wee0829ewqewqq0wq9erw959ew455444444444444444444444",
">w950090q9ew9wrew6wewweww04444>#*>$$*&&>4444444444"
};
