/* XPM */
static char *wall[] = {
/* columns rows colors chars-per-pixel */
"50 50 101 2 ",
"   c #244970",
".  c #29537F",
"X  c #245388",
"o  c #3A6FA7",
"O  c #3A70AD",
"+  c #2F6FB5",
"@  c #316FB4",
"#  c #3370B5",
"$  c #3D75B3",
"%  c #3473BA",
"&  c #4E7294",
"*  c #507CA4",
"=  c #4379B1",
"-  c #3376C1",
";  c #3579C6",
":  c #3879C2",
">  c #387FCE",
",  c #377ED1",
"<  c #387FD2",
"1  c #5381AB",
"2  c #4F81B9",
"3  c #5281B1",
"4  c #5688BB",
"5  c #5F8DBF",
"6  c #6B87A3",
"7  c #7493AE",
"8  c #638FBF",
"9  c #698FB9",
"0  c #6490B6",
"q  c #6E94BD",
"w  c #7397B5",
"e  c #3B82CE",
"r  c #3981D2",
"t  c #4086CD",
"y  c #4288CE",
"u  c #5B8DC3",
"i  c #5F92C5",
"p  c #5892CE",
"a  c #5A95D1",
"s  c #618FC2",
"d  c #6291C4",
"f  c #6395C9",
"g  c #6799CD",
"h  c #689BCE",
"j  c #7A9FC9",
"k  c #4594E5",
"l  c #4797E9",
"z  c #4798E9",
"x  c #4C9CED",
"c  c #8096A9",
"v  c #8AA1B6",
"b  c #8DA5BA",
"n  c #91A9BE",
"m  c #A7A8A9",
"M  c #A2B1BD",
"N  c #BABBBC",
"B  c #85A9C6",
"V  c #9DB4C9",
"C  c #A3BACC",
"Z  c #A8BFD4",
"A  c #A3BDD8",
"S  c #B1C1CE",
"D  c #ABC1D6",
"F  c #ADC5DF",
"G  c #B0C8DA",
"H  c #B3C9E0",
"J  c #BECFE2",
"K  c #BDD0E3",
"L  c #CDCCCC",
"P  c #D0CFCE",
"I  c #C2CDD4",
"U  c #CBCED1",
"Y  c #CDD4D8",
"T  c #D4D4D4",
"R  c #DBDCDC",
"E  c #C2D2E3",
"W  c #DDDFE1",
"Q  c #D1DEEA",
"!  c #DFE0E2",
"~  c #DBE5EC",
"^  c #DAE6F1",
"/  c #DDECF7",
"(  c #E4E7E9",
")  c #E6E9EC",
"_  c #EAEAEA",
"`  c #EDEDED",
"'  c #EFEFEE",
"]  c #E2EBF3",
"[  c #EDEFF1",
"{  c #E1EFF8",
"}  c #E7F0F6",
"|  c #EBF2F7",
" . c #E5F0F8",
".. c #EFF4F8",
"X. c #F0F0F0",
"o. c #F1F4F6",
"O. c #F7F7F7",
"+. c #F3F7FB",
"@. c #F6F9FB",
"#. c #F8F8F8",
"$. c #FFFFFF",
/* pixels */
"$.$.$.$.$.$.$.$.$.$.$.$.$.$.$.$.$.$.$.$.$.$.$.$.$.$.$.$.$.$.$.$.$.$.$.$.$.$.$.$.$.$.$.$.$.$.$.$.$.$.",
"$.$.$.$.$.$.$.$.$.$.$.$.$.$.$.$.$.$.$.$.$.$.$.$.$.$.$.$.$.$.$.$.$.$.$.$.$.$.$.$.$.$.$.$.$.$.$.$.$.$.",
"$.$.$.$.$.$.$.$.$.$.$.$.$.$.$.$.$.$.$.$.$.$.$.| ^ ^ ^ ^ ^ ^ ] $.$.$.$.$.$.$.$.$.$.$.$.$.$.$.$.$.$.$.",
"$.$.$.$.$.$.$.$.$.$.$.$.$.$.$.$.$.$.$.$.$.$.@.q O $ $ $ $ O 9 @.$.$.$.$.$.$.$.$.$.$.$.$.$.$.$.$.$.$.",
"$.$.$.$.$.$.$.$.$.$.$.$.$.$.$.$.$.$.$.$.$.$.E $ > > > > > > 5 @.$.$.$.$.$.$.$.$.$.$.$.$.$.$.$.$.$.$.",
"$.$.$.$.$.$.$.$.$.$.$.$.$.$.$.$.$.$.$.$.$.@.q - r r r r r , s @.$.$.$.$.$.$.$.$.$.$.$.$.$.$.$.$.$.$.",
"$.$.$.$.$.$.$.$.$.$.$.$.$.$.$.$.$.$.$.$.$.A # r r r r r r , s +.$.$.$.$.$.$.$.$.$.$.$.$.$.$.$.$.$.$.",
"$.$.$.$.$.$.$.$.$.$.$.$.$.$.$.$.$.$.$.$.K $ > r r r r r r > s @.$.$.$.$.$.$.$.$.$.$.$.$.$.$.$.$.$.$.",
"$.$.$.$.$.$.$.$.$.$.$.$.$.$.$.$.$.$.$.J = > r r r r r r r > s @.$.$.$.$.$.$.$.$.$.$.$.$.$.$.$.$.$.$.",
"$.$.$.$.$.$.$.$.$.$.$.$.$.$.$.$.$.@.A $ ; r r r r r r r r > s @.$.$.$.$.$.$.$.$.$.$.$.$.$.$.$.$.$.$.",
"$.$.$.$.$.$.$.$.$.$.$.$.$.$.$.$.] j # > r r r r r r r r r > s @.$.$.$.$.$.$.$.$.$.$.$.$.$.$.$.$.$.$.",
"$.$.$.$.$.$.$.$.$.$.$.$.$.$.+.F 2 % e r r r r r r r r r r > s @.$.$.$.$.$.$.$.$.$.$.$.$.$.$.$.$.$.$.",
"$.$.$.$.$.$.$.$.$.$.$.$.| H 8 # ; r r r r r r r r r r r r > s +.$.$.$.$.$.$.$.$.$.$.$.$.$.$.$.$.$.$.",
"$.$.$.$.$.$.$.$.$.$.$.Q 3 @ - e r r r r r r r r r r r r r > s +.$.$.$.$.$.$.$.$.$.$.$.$.$.$.$.$.$.$.",
"$.$.$.$.$.$.$.$.$.$.$.J % > r r r r r r r r r r r r r r r , s +.$.$.$.$.$.$.$.$.$.$.$.$.$.$.$.$.$.$.",
"$.$.$.$.$.$.$.$.$.$.$.E : r r r r r r < < ; - r r r r r r > s +.$.$.$.$.$.$.$.$.$.$.$.$.$.$.$.$.$.$.",
"$.$.$.$.$.$.$.$.$.$.$.E : r r r r r < r % X @ r r r r r r > s @.$.$.$.$.$.$.$.$.$.$.$.$.$.$.$.$.$.$.",
"$.$.$.$.$.$.$.$.$.$.$.E : r r r < , > @ .   @ r r r r r r > s @.$.$.$.$.$.$.$.$.$.$.$.$.$.$.$.$.$.$.",
"$.$.$.$.$.$.$.$.$.$.$.E ; < < , , ; o & c 6 @ r r r r r r > s @.$.$.$.$.$.$.$.$.$.$.$.$.$.$.$.$.$.$.",
"$.$.$.$.$.$.$.$.$.$.$.E - , , ; $ * 7 S o.V + r r r r r r > s @.$.$.$.$.$.$.$.$.$.$.$.$.$.$.$.$.$.$.",
"$.$.$.$.$.$.$.$.$.$.$.E % : = 1 w C ~ $.$.A # r r r r r r > s +.$.$.$.$.$.$.$.$.$.$.$.$.$.$.$.$.$.$.",
"$.$.$.$.$.$.$.$.$.$.$.E 3 0 B G ~ $.$.$.$.Z % r r r r r r > s +.$.$.$.$.$.$.$.$.$.$.$.$.$.$.$.$.$.$.",
"$.$.$.$.$.$.$.$.$.$.$.+.E Q ..$.$.$.$.$.$.D % r r r r r r > s +.$.$.$.$.$.$.$.$.$.$.$.$.$.$.$.$.$.$.",
"$.$.$.$.$.$.$.$.$.$.$.$.$.$.$.$.$.$.$.$.$.D % r r r r r r > s +.$.$.$.$.$.$.$.$.$.$.$.$.$.$.$.$.$.$.",
"$.$.$.$.$.$.$.$.$.$.$.$.$.$.$.$.$.$.$.$.$.D % r r r r r r > s +.$.$.$.$.$.$.$.$.$.$.$.$.$.$.$.$.$.$.",
"$.$.$.$.$.$.$.$.$.$.$.$.$.$.$.$.$.$.$.$.$.D % r r r r r r > s @.$.$.$.$.$.$.$.$.$.$.$.$.$.$.$.$.$.$.",
"$.$.$.$.$.$.$.$.$.$.$.$.$.$.$.$.$.$.$.$.$.D % r r r r r r > s @.$.$.$.$.$.$.$.$.$.$.$.$.$.$.$.$.$.$.",
"$.$.$.$.$.$.$.$.$.$.$.$.$.$.$.$.$.$.$.$.$.D % r r r r r r > s +.$.$.$.$.$.$.$.$.$.$.$.$.$.$.$.$.$.$.",
"$.$.$.$.$.$.$.$.$.$.$.$.$.$.$.$.$.$.$.$.$.D % r r r r r r > s +.$.$.$.$.$.$.$.$.$.$.$.$.$.$.$.$.$.$.",
"$.$.$.$.$.$.$.$.$.$.$.$.$.$.$.$.$.$.$.$.$.D % r r r r r r > d @.$.$.$.$.$.$.$.$.$.$.$.$.$.$.$.$.$.$.",
"$.$.$.$.$.$.$.$.$.$.$.$.$.$.$.$.$.$.$.$.$.D % r r r r r e > d @.$.$.$.$.$.$.$.$.$.$.$.$.$.$.$.$.$.$.",
"$.$.$.$.$.$.$.$.$.$.$.$.$.$.$.$.$.$.$.$.$.D % r r r r r r > d @.$.$.$.$.$.$.$.$.$.$.$.$.$.$.$.$.$.$.",
"$.$.$.$.$.$.$.$.$.$.$.$.$.$.$.$.$.$.$.$.$.Z t x x x x x x k h +.$.$.$.$.$.$.$.$.$.$.$.$.$.$.$.$.$.$.",
"$.$.$.$.$.$.$.$.$.$.$.$.$.$.$.$.$.$.$.$.$.A y x x x x x x x h @.$.$.$.$.$.$.$.$.$.$.$.$.$.$.$.$.$.$.",
"$.$.$.$.$.$.$.$.$.$.$.$.$.$.$.$.$.$.$.$.$.A y x x x x x x x h +.$.$.$.$.$.$.$.$.$.$.$.$.$.$.$.$.$.$.",
"$.$.$.$.$.$.$.$.$.$.$.$.o.o.o.o.o.' ' ' ' V y x x x x x x x g [ o.o.$.$.$.$.$.$.$.$.$.$.$.$.$.$.$.$.",
"$.$.$.$.$.o.o.o.o.o.o.' ' ' ' ( ( ( R R R n y x x x x x x x f ( ' ' o.o.o.o.o.$.o.$.$.$.$.$.$.$.$.o.",
"$.$.o.o.o.o.o.o.' ' ' ' ( ( ( R R T T L L v y x x x x x x x f W ( ' ' ' o.o.o.o.o.o.$.$.$.$.o.o.o.o.",
"$.o.o.o.o.o.o.' ' ' ' ' ( ( ( R R T T L L v t x x x x x x z f R ( ' ' ' o.o.o.o.o.o.$.$.$.$.$.o.o.o.",
"$.$.o.o.o.o.o.o.[ ' ' ' ' ( ( ! R T T T P b y x x x x x x z f R ( ' ' ' o.o.o.$.$.$.$.$.$.$.$.o.$.o.",
"$.$.$.$.o.o.o.o.o.o.o.' ' ' ' ( ( R R T T b y x x x x x x l f W ' ' ' o.o.o.$.$.$.$.$.$.$.$.$.o.$.o.",
"$.$.$.$.$.$.$.$.@.o.o.o.o.o.o.o.' ' ( R R n y x x x x x x l f R ( ' o.o.$.$.$.$.$.$.$.$.$.$.$.o.$.$.",
"$.$.$.$.$.$.$.$.$.$.$.$.$.$.$.$.@.o.' ( R b t x x x x x x l i T ( ' o.o.$.$.$.$.$.$.$.$.$.$.$.o.$.$.",
"$.$.$.$.$.$.$.$.$.$.$.$.$.$.+.o.o.o.[ ( R v e x x x x x x l u U ( ' ..o.o.o.o.o.o.o.$.$.o.$.o.o.$.$.",
"o.$.$.$.$.$.$.$.@.@.+.+.o.o.o.| [ ' ' ) ( M 4 a a a a a a p q T ( ' ' ' [ o.o.o.o.o.o.o.o.o.#.$.$.o.",
"o.o.o.o.o.o.o.o.o.o.o.o.o.[ ' ' ' ' ) ) ) ! I I I I I I I I Y ( ) ' ' ' ' [ | o.o.o.o.o.o.o.o.o.o.o.",
"o.o.o.o.o.o.o.o.o.o.| [ ' ' ' [ [ ' ] ] ] ] ] ] / / / / / {  .} [ [ [ [ [ [ | o.o.o.o.o.o.o.o.o.o.o.",
"R o.o.o.o.o.o.o.o.| [ [ [ [ [ [ [ [ [ | | | } ] ] ] ] ] {  . .....| | | ..o.o.o.o.o.o.o.o.o.o.o.o.o.",
"m o.o.o.o.o.o.o.o.o.| | [ [ [ [ [ | | | ......| | | | | ..................+.+.+.+.+.o.o.o.o.o.o.o.o.",
"N o.o.o.o.o.o.+.o.o.| [ [ | | [ | | | | ........| | ..............+.+.+.+.+.+.+.+.+.+.+.+.o.o.o.o.o."
};
