/* XPM */
static char *hurikake[] = {
/* columns rows colors chars-per-pixel */
"50 34 230 2 ",
"   c #394E14",
".  c #355316",
"X  c #3B5416",
"o  c #365419",
"O  c #3B5419",
"+  c #3C5422",
"@  c #465719",
"#  c #445B1A",
"$  c #545B1B",
"%  c #49611E",
"&  c #59631F",
"*  c #755923",
"=  c #466427",
"-  c #576824",
";  c #5B6B25",
":  c #4D742D",
">  c #53742D",
",  c #5B782F",
"<  c #4C7531",
"1  c #4C7737",
"2  c #527532",
"3  c #5A7A33",
"4  c #656C26",
"5  c #736825",
"6  c #68772C",
"7  c #647B32",
"8  c #6B7B35",
"9  c #7A7C36",
"0  c #995529",
"q  c #9E4F31",
"w  c #9B5435",
"e  c #A2572C",
"r  c #A35936",
"t  c #84782C",
"y  c #97762D",
"u  c #957630",
"i  c #A7672B",
"p  c #BE772D",
"a  c #A96635",
"s  c #AC7632",
"d  c #B87B38",
"f  c #C07B30",
"g  c #A05D41",
"h  c #837945",
"j  c #A76845",
"k  c #B87741",
"l  c #B77C5E",
"z  c #738135",
"x  c #718A37",
"c  c #778143",
"v  c #798F5A",
"b  c #7D9262",
"n  c #8B8233",
"m  c #868838",
"M  c #988A37",
"N  c #89953C",
"B  c #97993C",
"V  c #A78B39",
"C  c #B7863B",
"Z  c #BE933E",
"A  c #94A13D",
"S  c #A6A33E",
"D  c #C58838",
"F  c #D38F3E",
"G  c #C8923F",
"H  c #8F8E4A",
"J  c #8A9941",
"K  c #9A9A42",
"L  c #969959",
"P  c #B98541",
"I  c #A49943",
"U  c #AB9D44",
"Y  c #B79942",
"T  c #B99056",
"R  c #8DA24C",
"E  c #98A446",
"W  c #A7A744",
"Q  c #B9A344",
"!  c #B5B24E",
"~  c #A4AC51",
"^  c #B8B958",
"/  c #809465",
"(  c #959968",
")  c #BF966F",
"_  c #BC8973",
"`  c #94A56C",
"'  c #AEB06F",
"]  c #C58D43",
"[  c #CD9342",
"{  c #C89846",
"}  c #D29443",
"|  c #D79A44",
" . c #D49C45",
".. c #D49C4A",
"X. c #C59855",
"o. c #D49856",
"O. c #C8A64B",
"+. c #CDAB4C",
"@. c #D5A44A",
"#. c #DBA44C",
"$. c #D7A94A",
"%. c #DBAA4C",
"&. c #C3B34D",
"*. c #C8B44F",
"=. c #D6B44F",
"-. c #CAA554",
";. c #D7A954",
":. c #C7B657",
">. c #D5B253",
",. c #DCB354",
"<. c #DDBB54",
"1. c #D6B959",
"2. c #E3AB4E",
"3. c #E0B44E",
"4. c #E6AA51",
"5. c #E2AD54",
"6. c #E5B454",
"7. c #E5BA55",
"8. c #EABB55",
"9. c #E6B55A",
"0. c #EBB55A",
"q. c #E5BB5A",
"w. c #EABB5A",
"e. c #F1BF58",
"r. c #C28D75",
"t. c #C29676",
"y. c #D6A76A",
"u. c #C5B169",
"i. c #DAB766",
"p. c #CAA675",
"a. c #D4AC74",
"s. c #D9B675",
"d. c #E6BD67",
"f. c #EBBF73",
"g. c #BDC66A",
"h. c #C7C357",
"j. c #D8C759",
"k. c #D8D35D",
"l. c #E6C255",
"z. c #EAC356",
"x. c #E4C35C",
"c. c #ECC35B",
"v. c #E8CB58",
"b. c #EDCA5B",
"n. c #F1C65A",
"m. c #EED35C",
"M. c #EFDB5D",
"N. c #F2D35D",
"B. c #F4DB5E",
"V. c #F8DE5E",
"C. c #E7EA5E",
"Z. c #F7E25E",
"A. c #C4C865",
"S. c #D5C863",
"D. c #DDCC65",
"F. c #DDCA6A",
"G. c #CBD36C",
"H. c #D7D76C",
"J. c #DCD36B",
"K. c #C1C674",
"L. c #D9C877",
"P. c #DCD571",
"I. c #D5D972",
"U. c #DCDD74",
"Y. c #DBDE78",
"T. c #E9C464",
"R. c #E3CB63",
"E. c #ECCC62",
"W. c #E2CD6A",
"Q. c #F1CC61",
"!. c #EBD462",
"~. c #EBDC62",
"^. c #E1D46D",
"/. c #F3D462",
"(. c #F8DE64",
"). c #F4D268",
"_. c #F4DC69",
"`. c #E8C574",
"'. c #F0CC78",
"]. c #E2DD73",
"[. c #EADA73",
"{. c #F2D577",
"}. c #F3DC75",
"|. c #D6E076",
" X c #DCE175",
".X c #D6E079",
"XX c #DBE279",
"oX c #EAE269",
"OX c #F5E365",
"+X c #F9E565",
"@X c #F6E867",
"#X c #FAE965",
"$X c #F4E46B",
"%X c #FAE56A",
"&X c #F5E969",
"*X c #FAE969",
"=X c #FCF366",
"-X c #FCF26A",
";X c #E8E476",
":X c #F5E174",
">X c #F5E37A",
",X c #F9E57A",
"<X c #F9E97A",
"1X c #F6F07B",
"2X c #D8B584",
"3X c #E2BE8A",
"4X c #DCC684",
"5X c #DAD883",
"6X c #DDD29B",
"7X c #E5C889",
"8X c #E4D28B",
"9X c #EAD68A",
"0X c #F0DA88",
"qX c #E8CA96",
"wX c #EDD996",
"eX c #F2D696",
"rX c #EDE584",
"tX c #F6E88A",
"yX c #FBF688",
"uX c #FBF58C",
"iX c #E9E49B",
"pX c #F7E797",
"aX c #FBF598",
"sX c #EBD3AF",
"dX c #E5E6A6",
"fX c #F0E1B0",
"gX c #F6E4C9",
"hX c #F8EBDA",
"jX c #FFFAEE",
"kX c #FCF8F5",
/* pixels */
"dXdXiXc o 8 iXpXeXd.7.`.5X` v 6 A.U.J.;.;.tXaXaXK.# . $ O.}.yXyXyXyX*Xn.i.9XaX4X_ r  .b.}.tXtX8X( v ",
"dXwX9Xc o 8 8XeX7X;.6.F.' b b ' U..XI.u.y.9XpXiXg.; # J ].yXyXyXyX,X%X(.1.9XyX4X_ g ..8.b.$X:XW.H , ",
"eXeXfXH o 7 4XqXp.j Z L b b K.5XY.L.a.y.a.a.s.F.U.A.A.yXyXyX;X[.T.w.(.#X[.9XaX8X) T S.T.q.n./.q.+.h.",
"7XfXfXu.W u.8X2Xt.j 0 h / ' iX5XS.-.s.a.y.X.C  .R.yXyXyXrX^ 8 Q 8.0.c.+X:X0XpX8Xp.L.G.H.].x.7.6.7.m.",
"L 6XiX[.+X}.tXp._ j r ) u.8X9XF.#.o.3Xp.] d p f @.rXyX:XI # A &X+Xm.z.b.).T._.R.d y 4 8 A.;XF.q.9.c.",
"! P.;X$XOX}.qXt._ j a a.9X7X7Xi.4.X.( 9 s f d o.L.i.,.6.>.W C.-X=X=X#X(.b.c.+XV.4.u O o ; ^ XXR.0.w.",
"+X#X#X+X/.o.l _ r.k { L.3Xt.7XT.8.Q 1 : M D D L.L.] p G c.Z.+X*X=X=X=X=X+XN.#XB.w.N # o O $ E j.w.6.",
"#X+X(.c.] e q w T i.D.5X2Xa.wX[.n.;.8 1 z [ D X.] p D 8.(./.w.c.N.*X-X-Xb.N.#XB.(.OX! 4 X o @ t +.0.",
"! S { d 0 0 0 P d.^.I.5X8XtX8Xy.,.q.m 1 3 G F D G %.m.#X*X%Xn.0.6.8.N.OXl.N.(.OX+X#XN.$.n $ X X - V ",
"X . * 0 0 e ] D.U. X XoX_.;X4X) X.;.U 1 1 Y #.@.N.#X*X&X$X%X(.w.8.N./.c.0.8./.$X%X/.7.7.7.Y 6 X X @ ",
". O t d d @.W.U.U.U.$XOX#XM.{ T X.;.=.3 : M 7.6.N.+X+X%X%X%X+Xc.l.+XwXqXf.n.(.%X/.q.6.b.(.z.<.B - X ",
"% . n 7.q.^.Y.U.J.!.#X+Xb.d 0 d ;.c.oXx : 7 >.6.z.+X(.+X+X+X*Xb.q.+XwXsX9XZ.%X,X}.b.8.+X=XN.6.b.j.B ",
"4   t 7.7.D.U.D.q.c.N.Q.@.0 q i 6.(.*XW : 3 Q 8.7.c.w.6.+X%X@X(.q.(.>XsXwX(.}.>X%X+XN.B.-X+X8.6.n.n.",
"n   t 7.8.*.E K 1.x.j.q.%.a q 0 #.(.%Xj.3 : N q.6.8.6.} b.*X@XOXc.N.#X0XrX>X{.$X+X#X%XOX*X=Xb.6.6.O.",
"S   9 J.J.H.G.I.U.].].^.,.s a C 7.N./.~.N : 3 *.6.n.(.%.6.+X#X#Xn.b.+X&XtX>X(.n.+X+X+X+XB.+X/.6.,.n ",
"Q @ 6 H.U.].U.G.H.H.U.U.q.#.9.E.oX$X+X%Xh.1 2 Y 4.<.#XN.%.B.@Xk.b.b.%X,X>X$Xn.w.8./.%X(.z.7.8.q.I > ",
"y @ ; S.x.d.1.t - ; B i.d.W.^.]. X XOX*X~.J W $. . ./.#Xv.*.J x &.E.<X{.%.3.4.6.#. .$.6.6.6.8.U 7 R ",
"Y $ # ^ c.0.8.Y # . & >.].Y. XXX|.J.x.m.(./.2. .] P ! OXOXW , 7 -.{.>X_.@.@.,.8.%.[ #.c.8.8.&.7 v 8X",
"=.9 z *.Q.8.6.,.t $ ~ U.U. XH.E m >.8.8.w.O.V n 8 2 8 j.#X~.*.;.f.}.&X$XH. X^.w.4.} b.#X+X<.z 1 L 9X",
"z.7.~.Z.+X(.8.w.Y N  XXXU.:.6 O   n +.7.8.U > : , m Y l.+X#XOX`.f._.&X$X].S.1.9.6.#.%.(.~.N 1 > K d.",
"7.q.c.OX%X%X(.w.<.K H.^ :.q.t O O = 7 Q 8.,.m M O.6.w.w./.%X,X{.F.U. X].1.{ %.w.c.6...O.J 1 1 E b.w.",
"7.9.0.c.%X%X/.c.OXA 8 # N %Xx.t O : : m 6.6.4.,.6.6.6.6.T.>X>X$X]. XU.>.} } 6./.+Xc.%.m > 2 J ~.#X(.",
"8.8.w.w.b./.w.8.(.W @ z B !.Q.,.9 1 > n 6.6.0.6.6...#.w.`.`.OX+X!.P.1.[ }  .N.#X#X!.H 2 1 9 =.(.OXb.",
"n.N.(.c.8.b.c.7.7.Y 4 L.i.O.6.>.z 1 = & &.D.J.J.J.1.,.`.d.q.b.n.8.q.@.} } G z.#X*Xj.3 1 m O. .#.4. .",
"e.B.W M m.+X(.q.#.[ C i.`.;.6.m : x E g.U. X|.|.I.;X<X[.x.7.6.9.8.z.N.7.[ } 6.(.%XOXE K 1.w.6.4.4.2.",
",.E # 5 !.#X%Xb.} } } ..,.6.K > , A.;X XH.A.F.R.;X1X1X-X*XN.l.7.6.N.#X+X6.} 6.n.%X%XoX].].J.D.q.0.w.",
"5 O . 5 x.+X+X+X%.} [ @.6.I 3 : n ;.j.U 6 % V c.>X<X-X=X-X=X#Xm.7.z.+X#X(.%.6.w._.%X+XoX X XU.W.q.w.",
". O # U ,./.#X#Xb. .#.6.I 2 1 9 ] } } C @ ; *.'.i.$.b.%X-X-X=X=X+XN.m.#X#XN.q.7.Q.%X+XOX~.^. X|.P.E.",
"X % ~ U.i.q.OX#X+Xc.7.6.K 7 8 O.} [ } G n j.>X}.6.} } @.b.#X-X=X=X=X#XOX+X+XE.6.8.(.+X#X(.x.^. XXXXX",
"8 g. XY.XXH.OX+X+XN.8.e.8.+.+.7.;.} [ #.!.<X>X_.8. .} [ [ 3.OX-X=X=X+Xl.(.#X%Xc.6.N.*X(.%. .w.W.U. X",
"dXpXi.1.S.I.;X+X/.8.8.(.(.(./.7.6.#.,.(.<X>X%XN.w.0.Y C } } 6.n.#X-X7.[ 6./.(.c.6.q.<.d e  .8.7.D.H.",
"gXs.} } o.qXwXn.w.x.b.%X+X+X/.6.7.b.%X,X,X(.6.2.a.( = & G [  .6.'.pX;.e a k P k k a e q i 4.w.R.H.j.",
"y.[ F o.sXhX7X6.j.^ Y j.%X+Xc.6.n.%X<X>Xb.#.[ u ; + o X u } } 9.gXjXqXa r q 0 q q q e 0 a S.P.Y.U.D.",
"F F o.sXkXsXq.U - # @ B &XOXc.8.%X<X>Xb. .Z 5 @ O o . @ y ..,.wXjXkXgXy...} D d i i i s *.U..X.X XD."
};
