/* XPM */
static char *empty[] = {
/* columns rows colors chars-per-pixel */
"50 46 48 1 ",
"  c #000006",
". c #000008",
"X c #09090F",
"o c #0B0B11",
"O c #101015",
"+ c #151519",
"@ c #19191E",
"# c #1B1B20",
"$ c #222226",
"% c #252529",
"& c #29292D",
"* c #2D2D31",
"= c #323235",
"- c #343439",
"; c #3C3C3F",
": c #3E3E41",
"> c #444447",
", c #46464A",
"< c #4C4C4E",
"1 c #4E4E51",
"2 c #525254",
"3 c #575759",
"4 c #5C5C5E",
"5 c #606062",
"6 c #757577",
"7 c #7B7B7D",
"8 c #7F7F80",
"9 c #858586",
"0 c #898989",
"q c #8F8F91",
"w c #909091",
"e c #9A9A9B",
"r c #9F9FA0",
"t c #A0A1A2",
"y c #A7A7A8",
"u c #ADAEAE",
"i c #B1B1B2",
"p c #B9B9BA",
"a c #C5C5C6",
"s c #C7C7C8",
"d c #CBCCCC",
"f c #D5D5D5",
"g c #D9D9DA",
"h c #E5E5E5",
"j c #EDEDED",
"k c #F1F1EF",
"l c #F0F0F0",
"z c #FFFFFF",
/* pixels */
"zzzzzzzzzzzzzzzzzzzzzzzzzzzzzzzzzzzzzzzzzzzzzzzzzz",
"zzzzzzzzzzzzzzzzzzzzzzzzzzzzzzzzzzzzzzzzzzzzzzzzzz",
"zzzzzzzzzzzzzzzzzzzzzzzzzzzzzzzzzzzzzzzzzzzzzzzzzz",
"zzzzzzzzzzzzzzzzzzzzzzzzzzzzzzzzzzzzzzzzzzzzzzzzzz",
"zzzzzzzzzzzzzzzzzzzzzzzzzzzzzzzzzzzzzzzzzzzzzzzzzz",
"zzzzzzzzzzzzzzzzzzzzzzzzzzzzzzzzzzzzzzzzzzzzzzzzzz",
"zzzzzzzzzzzzzzzzzzzzzzzzzzzzzzzzzzzzzzzzzzzzzzzzzz",
"zzzzzzzzzzzzzzzzzzzzzzzzzzzzzzzzzzzzzzzzzzzzzzzzzz",
"zzzzzzzzzzzzzzzzzzzzzzzzzzzzzzzzzzzzzzzzzzzzzzzzzz",
"zzzzzzzzzzzzzzzzzzzzlfppahzzzzzzzzzzzzzzzzzzzzzzzz",
"zzzzzzzzzzzzzzzzzzly1$oo+;0hzzzzzzzzzzzzzzzzzzzzzz",
"zzzzzzzzzzzzzzzzzl7O .... .2gzzzzzzzzzzzzzzzzzzzzz",
"zzzzzzzzzzzzzzzzzwo...  ....4jzzzzzzzzzzzzzzzzzzzz",
"zzzzzzzzzzzzzzzzf*....*,@ ..otzzzzzzzzzzzzzzzzzzzz",
"zzzzzzzzzzzzzzzzq....2fju$.. >jzzzzzzzzzzzzzzzzzzz",
"zzzzzzzzzzzzzzzk< . #azzz8...oizzzzzzzzzzzzzzzzzzz",
"zzzzzzzzzzzzzzzg& . <jzzza@ . 7zzzzzzzzzzzzzzzzzzz",
"zzzzzzzzzzzzzzzp+.. 6zzzzh= . 3lzzzzzzzzzzzzzzzzzz",
"zzzzzzzzzzzzzzzt... 0zzzzj: . ;jzzzzzzzzzzzzzzzzzz",
"zzzzzzzzzzzzzzze....ezzzzl> . %gzzzzzzzzzzzzzzzzzz",
"zzzzzzzzzzzzzzzw...Xrzzzzl< . $gzzzzzzzzzzzzzzzzzz",
"zzzzzzzzzzzzzzzw...Xtzzzzl< . $gzzzzzzzzzzzzzzzzzz",
"zzzzzzzzzzzzzzze....ezzzzl, . %gzzzzzzzzzzzzzzzzzz",
"zzzzzzzzzzzzzzzt....0zzzzk: . =hzzzzzzzzzzzzzzzzzz",
"zzzzzzzzzzzzzzzp+ . 7zzzzh- . 1lzzzzzzzzzzzzzzzzzz",
"zzzzzzzzzzzzzzzg* . 4lzzzs# . 6zzzzzzzzzzzzzzzzzzz",
"zzzzzzzzzzzzzzzl5 . &fzzzq...Xtzzzzzzzzzzzzzzzzzzz",
"zzzzzzzzzzzzzzzzuo...6jzd= . *gzzzzzzzzzzzzzzzzzzz",
"zzzzzzzzzzzzzzzzj< ..o26=....9zzzzzzzzzzzzzzzzzzzz",
"zzzzzzzzzzzzzzzzzuO...   .. :gzzzzzzzzzzzzzzzzzzzz",
"zzzzzzzzzzzzzzzzzl6X ..... *pzzzzzzzzzzzzzzzzzzzzz",
"zzzzzzzzzzzzzzzzzzj9&o  .+2azzzzzzzzzzzzzzzzzzzzzz",
"zzzzzzzzzzzzzzzzzzzzft97wajzzzzzzzzzzzzzzzzzzzzzzz",
"zzzzzzzzzzzzzzzzzzzzzzzzzzzzzzzzzzzzzzzzzzzzzzzzzz",
"zzzzzzzzzzzzzzzzzzzzzzzzzzzzzzzzzzzzzzzzzzzzzzzzzz",
"zzzzzzzzzzzzzzzzzzzzzzzzzzzzzzzzzzzzzzzzzzzzzzzzzz",
"zzzzzzzzzzzzzzzzzzzzzzzzzzzzzzzzzzzzzzzzzzzzzzzzzz",
"zzzzzzzzzzzzzzzzzzzzzzzzzzzzzzzzzzzzzzzzzzzzzzzzzz",
"zzzzzzzzzzzzzzzzzzzzzzzzzzzzzzzzzzzzzzzzzzzzzzzzzz",
"zzzzzzzzzzzzzzzzzzzzzzzzzzzzzzzzzzzzzzzzzzzzzzzzzz",
"zzzzzzzzzzzzzzzzzzzzzzzzzzzzzzzzzzzzzzzzzzzzzzzzzz",
"zzzzzzzzzzzzzzzzzzzzzzzzzzzzzzzzzzzzzzzzzzzzzzzzzz",
"zzzzzzzzzzzzzzzzzzzzzzzzzzzzzzzzzzzzzzzzzzzzzzzzzz",
"zzzzzzzzzzzzzzzzzzzzzzzzzzzzzzzzzzzzzzzzzzzzzzzzzz",
"zzzzzzzzzzzzzzzzzzzzzzzzzzzzzzzzzzzzzzzzzzzzzzzzzz",
"zzzzzzzzzzzzzzzzzzzzzzzzzzzzzzzzzzzzzzzzzzzzzzzzzz"
};
