/* XPM */
static char *exit[] = {
/* columns rows colors chars-per-pixel */
"50 42 45 1 ",
"  c #31373A",
". c #343A3E",
"X c #373D40",
"o c #383E40",
"O c #3E4447",
"+ c #414649",
"@ c #474C4F",
"# c #484E50",
"$ c #4E5455",
"% c #505558",
"& c #575C5E",
"* c #5E6366",
"= c #606568",
"- c #616668",
"; c #676C6D",
": c #686D6F",
"> c #6A6E70",
", c #6F7475",
"< c #727677",
"1 c #747879",
"2 c #7D8182",
"3 c #808485",
"4 c #848889",
"5 c #8C8F90",
"6 c #999C9D",
"7 c #9FA2A3",
"8 c #A3A6A7",
"9 c #A3A6A8",
"0 c #A5A9AA",
"q c #A8AAAC",
"w c #ACAFB0",
"e c #B0B3B4",
"r c #B8BABB",
"t c #BDBFC0",
"y c #C7C9CA",
"u c #C9CBCB",
"i c #D1D2D3",
"p c #DADCDC",
"a c #E5E6E7",
"s c #EBEBEB",
"d c #F3F4F4",
"f c #F7F8F7",
"g c #F7F7F8",
"h c #F8F8F8",
"j c #FFFFFF",
/* pixels */
"jjjjjjjjjjjjjjjjjjjjjjjjjjjjjjjjjjjjjjjjjjjjjjjjjj",
"jjjjjjjjjjjjjjjjjjjjjjjjjjjjjjjjjjjjjjjjjjjjjjjjjj",
"jjjjjjjjjjjjjjjjjjjjjjjjjspjjjjjjjjjjjjjjjjjjjjjjj",
"jjjjjjjjjjjjjjjjjjjjjdpe3&,djjjjjjjjjjjjjjjjjjjjjj",
"jjjjjjjjjjjjjjjjjjsy6>#o..:djjjjjjjjjjjjjjjjjjjjjj",
"jjjjjjjjjjjjjjdpe3&O...XX.:ja0888wdjjjjjjjjjjjjjjj",
"jjjjjjjjjjjjjg4@o..XXXXXX.:ju+OO.#ajjjjjjjjjjjjjjj",
"jjjjjjjjjjjjjd*.XXXXXXXX..:jduuu,#ajjjjjjjjjjjjjjj",
"jjjjjjjjjjjjjd=.XXXXXXXXX.:djjjj4#ajjjjjjjjjjjjjjj",
"jjjjjjjjjjjjjd=.XXXXXXXX..:djjjj4#ajjjjjjjjjjjjjjj",
"jjjjjjjjjjjjjd=.XXXXXXXXX.:djjjj4#ajjjjjjjjjjjjjjj",
"jjjjjjjjjjjjjd=.XXXXXXXXX.:djjjj4#ajjjjjjjjjjjjjjj",
"jjjjjjjjjjjjjd=.XXXXXXXXX.:djjjj4#ajjjjjjjjjjjjjjj",
"jjjjjjjjjjjjjd=.XXXXXXXXX.:djjjj4#ajjjjjjjjjjjjjjj",
"jjjjjjjjjjjjjd=.XXXXXXXXX.:djjjj4#ajjjjjjjjjjjjjjj",
"jjjjjjjjjjjjjd=.XXXXXXooX.:djjjj4#ajjjjjjjjjjjjjjj",
"jjjjjjjjjjjjjd=.XXXXXXX...:djjjj4#ajjjjjjjjjjjjjjj",
"jjjjjjjjjjjjjd=.XXXXXX.@@.:djjjj4#ajjjjjjjjjjjjjjj",
"jjjjjjjjjjjjjd=.XXXXX.+trO:djjjj4#ajjjjjjjjjjjjjjj",
"jjjjjjjjjjjjjd=.XXXXXXO87o:djjjj4#ajjjjjjjjjjjjjjj",
"jjjjjjjjjjjjjd=.XXXXXXXOO.:djjjj4#ajjjjjjjjjjjjjjj",
"jjjjjjjjjjjjjd=.XXXXXXXXX.:djjjj4#ajjjjjjjjjjjjjjj",
"jjjjjjjjjjjjjd=.XXXXXXXXX.:djjjj4#ajjjjjjjjjjjjjjj",
"jjjjjjjjjjjjjd=.XXXXXXXXX.:djjjj4#ajjjjjjjjjjjjjjj",
"jjjjjjjjjjjjjd=.XXXXXXXXo.:djjjj4#ajjjjjjjjjjjjjjj",
"jjjjjjjjjjjjjd=.XXXXXXXXo.:djjjj4#ajjjjjjjjjjjjjjj",
"jjjjjjjjjjjjjd=.XXXXXXXXX.:djjjj4#ajjjjjjjjjjjjjjj",
"jjjjjjjjjjjjjd=.XXXXXXXXX.:djjjj4#ajjjjjjjjjjjjjjj",
"jjjjjjjjjjjjjd=.XXXXXXXX..:djjjj4#ajjjjjjjjjjjjjjj",
"jjjjjjjjjjjjjd=.XXXXXXXXX.:djjjj4#ajjjjjjjjjjjjjjj",
"jjjjjjjjjjjjjd*..XXXXXXXX.:jaq00=#ajjjjjjjjjjjjjjj",
"jjjjjjjjjjjjjj7*@...XXXXX.:ju+OOO%ajjjjjjjjjjjjjjj",
"jjjjjjjjjjjjjjjdi91$O...X.:jduyyyudjjjjjjjjjjjjjjj",
"jjjjjjjjjjjjjjjjjjjar5*+. ;djjjjjjjjjjjjjjjjjjjjjj",
"jjjjjjjjjjjjjjjjjjjjjjdi9<2fjjjjjjjjjjjjjjjjjjjjjj",
"jjjjjjjjjjjjjjjjjjjjjjjjjjsjjjjjjjjjjjjjjjjjjjjjjj",
"jjjjjjjjjjjjjjjjjjjjjjjjjjjjjjjjjjjjjjjjjjjjjjjjjj",
"jjjjjjjjjjjjjjjjjjjjjjjjjjjjjjjjjjjjjjjjjjjjjjjjjj",
"jjjjjjjjjjjjjjjjjjjjjjjjjjjjjjjjjjjjjjjjjjjjjjjjjj",
"jjjjjjjjjjjjjjjjjjjjjjjjjjjjjjjjjjjjjjjjjjjjjjjjjj",
"jjjjjjjjjjjjjjjjjjjjjjjjjjjjjjjjjjjjjjjjjjjjjjjjjj",
"jjjjjjjjjjjjjjjjjjjjjjjjjjjjjjjjjjjjjjjjjjjjjjjjjj"
};
