/* XPM */
static char *heart[] = {
/* columns rows colors chars-per-pixel */
"50 42 39 1 ",
"  c #EA3A3B",
". c #E93F40",
"X c #E94243",
"o c #E94748",
"O c #E9494B",
"+ c #E94E50",
"@ c #EA5657",
"# c #EA5658",
"$ c #E95A5A",
"% c #EB5E60",
"& c #EA6365",
"* c #EC6B6B",
"= c #EB6F70",
"- c #ED7677",
"; c #EC797C",
": c #ED8182",
"> c #EF8B8C",
", c #EE8F90",
"< c #EF9193",
"1 c #EE9597",
"2 c #EF999A",
"3 c #F09595",
"4 c #F09E9E",
"5 c #F19FA1",
"6 c #F1A4A5",
"7 c #F2ABAC",
"8 c #F3B1B1",
"9 c #F5BCBD",
"0 c #F5C2C3",
"q c #F6C8C9",
"w c #F7CFD1",
"e c #F7D0D1",
"r c #F8D6D6",
"t c #F9DEDF",
"y c #FAE5E5",
"u c #FBECED",
"i c #FCEFF0",
"p c #FCF2F2",
"a c #FFFFFF",
/* pixels */
"aaaaaaaaaaaaaaaaaaaaaaaaaaaaaaaaaaaaaaaaaaaaaaaaaa",
"aaaaaaaaaaaaaaaaaaaaaaaaaaaaaaaaaaaaaaaaaaaaaaaaaa",
"aaaaaaaaaaaaaaaaaaaaaaaaaaaaaaaaaaaaaaaaaaaaaaaaaa",
"aaaaaaaaaaaaaaaaaaaaaaaaaaaaaaaaaaaaaaaaaaaaaaaaaa",
"aaaaaaaaaaaaaaaaaaaaaaaaaaaaaaaaaaaaaaaaaaaaaaaaaa",
"aaaaaaaaaaaaaapuuiaaaaaaaaaaaaapuuupaaaaaaaaaaaaaa",
"aaaaaaaaaaay7;&$@$-6yaaaaaaaae<*$@$*>0paaaaaaaaaaa",
"aaaaaaaaaa8$        $0aaaaap2O       X-taaaaaaaaaa",
"aaaaaaaaa6X          O0aaaa,           $eaaaaaaaaa",
"aaaaaaaaqo            $yaa8X            =paaaaaaaa",
"aaaaaaaa;              <au$             .9aaaaaaaa",
"aaaaaaat+              @y7               :aaaaaaaa",
"aaaaaaa0X               <*               &paaaaaaa",
"aaaaaaa8                XX               #uaaaaaaa",
"aaaaaaa8                                 @uaaaaaaa",
"aaaaaaa9.                                %uaaaaaaa",
"aaaaaaaeO                                -aaaaaaaa",
"aaaaaaap&                                6aaaaaaaa",
"aaaaaaaa6                               @taaaaaaaa",
"aaaaaaaay%                              3aaaaaaaaa",
"aaaaaaaaa9o                            *uaaaaaaaaa",
"aaaaaaaaaa6X                          $eaaaaaaaaaa",
"aaaaaaaaaaa5X                        $waaaaaaaaaaa",
"aaaaaaaaaaaa7O                      *taaaaaaaaaaaa",
"aaaaaaaaaaaaa0%                   .:uaaaaaaaaaaaaa",
"aaaaaaaaaaaaaay;.                O7paaaaaaaaaaaaaa",
"aaaaaaaaaaaaaaap6O              &qaaaaaaaaaaaaaaaa",
"aaaaaaaaaaaaaaaaa0$            :yaaaaaaaaaaaaaaaaa",
"aaaaaaaaaaaaaaaaaar&         X<paaaaaaaaaaaaaaaaaa",
"aaaaaaaaaaaaaaaaaaay*       X4aaaaaaaaaaaaaaaaaaaa",
"aaaaaaaaaaaaaaaaaaaay&      4aaaaaaaaaaaaaaaaaaaaa",
"aaaaaaaaaaaaaaaaaaaaae@    :paaaaaaaaaaaaaaaaaaaaa",
"aaaaaaaaaaaaaaaaaaaaaa8X  &yaaaaaaaaaaaaaaaaaaaaaa",
"aaaaaaaaaaaaaaaaaaaaaaa: X0aaaaaaaaaaaaaaaaaaaaaaa",
"aaaaaaaaaaaaaaaaaaaaaaat@:aaaaaaaaaaaaaaaaaaaaaaaa",
"aaaaaaaaaaaaaaaaaaaaaaaaeuaaaaaaaaaaaaaaaaaaaaaaaa",
"aaaaaaaaaaaaaaaaaaaaaaaaaaaaaaaaaaaaaaaaaaaaaaaaaa",
"aaaaaaaaaaaaaaaaaaaaaaaaaaaaaaaaaaaaaaaaaaaaaaaaaa",
"aaaaaaaaaaaaaaaaaaaaaaaaaaaaaaaaaaaaaaaaaaaaaaaaaa",
"aaaaaaaaaaaaaaaaaaaaaaaaaaaaaaaaaaaaaaaaaaaaaaaaaa",
"aaaaaaaaaaaaaaaaaaaaaaaaaaaaaaaaaaaaaaaaaaaaaaaaaa",
"aaaaaaaaaaaaaaaaaaaaaaaaaaaaaaaaaaaaaaaaaaaaaaaaaa"
};
