/* XPM */
static char *ine[] = {
/* columns rows colors chars-per-pixel */
"50 44 184 2 ",
"   c #85A738",
".  c #8BAB3C",
"X  c #95B53E",
"o  c #99B83F",
"O  c #8DAD43",
"+  c #8CAB4A",
"@  c #90AF43",
"#  c #93B343",
"$  c #98B742",
"%  c #9CBA45",
"&  c #95B34C",
"*  c #99B54B",
"=  c #9DBB4B",
"-  c #96B352",
";  c #9AB551",
":  c #9DB952",
">  c #96B25D",
",  c #9FBA5B",
"<  c #A0BE46",
"1  c #A0BE4A",
"2  c #A2BD54",
"3  c #A2BC5B",
"4  c #9EB860",
"5  c #A4BD64",
"6  c #ACBF60",
"7  c #A4BC6B",
"8  c #ACBE6D",
"9  c #A7BE73",
"0  c #A8BF73",
"q  c #A9BF7A",
"w  c #A4C146",
"e  c #ACC947",
"r  c #A5C24A",
"t  c #A9C64B",
"y  c #AECA4B",
"u  c #B0CC4C",
"i  c #A5C153",
"p  c #AAC555",
"a  c #AEC954",
"s  c #A6C15B",
"d  c #AAC559",
"f  c #AFC85B",
"g  c #B1CC56",
"h  c #B3CD5B",
"j  c #B9D25D",
"k  c #A6C064",
"l  c #AAC463",
"z  c #A7C06A",
"x  c #ABC46B",
"c  c #B4CD63",
"v  c #B2C46C",
"b  c #B4CC6C",
"n  c #BAD263",
"m  c #BBD36B",
"M  c #ACC374",
"N  c #AEC47B",
"B  c #B2C473",
"V  c #B3CA75",
"C  c #B9CF74",
"Z  c #B4C67C",
"A  c #B8C77F",
"S  c #BACD7C",
"D  c #BCD373",
"F  c #BDD27A",
"G  c #C2D96A",
"H  c #C3CB76",
"J  c #CAC970",
"K  c #C3CD7D",
"L  c #C0D672",
"P  c #C5DA75",
"I  c #C1D57D",
"U  c #C7DC7B",
"Y  c #D6D079",
"T  c #CDE078",
"R  c #B1C584",
"E  c #B5CA81",
"W  c #BACE83",
"Q  c #B6C98C",
"!  c #BBCD8C",
"~  c #BDD182",
"^  c #BED18A",
"/  c #B7C991",
"(  c #BECE97",
")  c #BDCE9A",
"_  c #BED191",
"`  c #C9CE88",
"'  c #C3D184",
"]  c #C5D983",
"[  c #CADD86",
"{  c #C2D48B",
"}  c #CAD18C",
"|  c #C7DA8B",
" . c #CADC8C",
".. c #D3D284",
"X. c #D9D383",
"o. c #DBD68B",
"O. c #D9D78E",
"+. c #C3D594",
"@. c #C7D894",
"#. c #C4D39B",
"$. c #CAD49B",
"%. c #CBDB9C",
"&. c #D3D595",
"*. c #DDD790",
"=. c #D4DC9C",
"-. c #DDDB99",
";. c #E0DA95",
":. c #E2DC9B",
">. c #CEE08A",
",. c #D2E286",
"<. c #D2E488",
"1. c #D5E49C",
"2. c #D8E798",
"3. c #C5D5A1",
"4. c #CAD7A3",
"5. c #CDDBA4",
"6. c #C8D7AA",
"7. c #CEDCAC",
"8. c #D3DBA1",
"9. c #DDDDA4",
"0. c #D1D7A8",
"q. c #D2DEAC",
"w. c #DCDFAA",
"e. c #CDDAB2",
"r. c #CFDBB8",
"t. c #D1DDB4",
"y. c #D3DEBD",
"u. c #E3DEA4",
"i. c #E4DFA9",
"p. c #D2E1A5",
"a. c #D4E1AD",
"s. c #DAE3AB",
"d. c #DAE7A8",
"f. c #D5E2B3",
"g. c #DAE4B5",
"h. c #DDE8B6",
"j. c #D6E1B8",
"k. c #DBE5BC",
"l. c #E6E0A5",
"z. c #E5E7AA",
"x. c #E5E1AC",
"c. c #E9E5B4",
"v. c #E1ECB2",
"b. c #E5E6BB",
"n. c #EAE6BA",
"m. c #E4E8BF",
"M. c #EBE8BD",
"N. c #DCE5C2",
"B. c #DEE8C4",
"V. c #DDE5CB",
"C. c #E2E7C5",
"Z. c #EAE7C1",
"A. c #E3E9C4",
"S. c #EDEAC4",
"D. c #E4ECCC",
"F. c #ECECCB",
"G. c #F0EBC5",
"H. c #F1EECD",
"J. c #EAF1CD",
"K. c #E5ECD4",
"L. c #EAEED4",
"P. c #E6ECD9",
"I. c #EAEFDC",
"U. c #F2EFD2",
"Y. c #F0EFDE",
"T. c #EDF0D4",
"R. c #ECF2DB",
"E. c #F3F0D5",
"W. c #F6F4DD",
"Q. c #F8F4DD",
"!. c #EFF4E2",
"~. c #EEF2E9",
"^. c #F5F4E0",
"/. c #F9F7E6",
"(. c #F4F8E4",
"). c #F4F6E9",
"_. c #F8F7E9",
"`. c #F6F9ED",
"'. c #F9F9EC",
"]. c #F5F6F4",
"[. c #F7F9F1",
"{. c #FCFBF5",
"}. c #F7F7F8",
"|. c #FFFFFF",
/* pixels */
"|.|.|.|.|.|.|.|.|.|.|.|.|.|.|.|.|.|.|.|.|.|.|.|.|.|.|.|.|.|.|.|.|.|.|.|.|.|.|.|.|.|.|.|.|.|.|.|.|.|.",
"|.|.|.|.|.|.|.|.|.|.|.|.|.|.|.|.|.|.|.|.|.|.|.|.|.|.|.|.|.|.|.|.|.|.|.|.|.|.|.|.|.|.|.|.|.|.|.|.|.|.",
"|.|.|.|.|.|.|.|.|.|.|.|.|.|.|.|.|.|.|.|.|.|.|.|.|.|.|.|.|.|.|.|.|.|.'._.{.|.Q.c.{.|.|.|.|.|.|.|.|.|.",
"|.|.|.|.|.|.|.|.|.|.|.|.|.|.|.|.|.|.|.|.|.|.|.|.|.|.|.|.|.|.|.^.F.n.;.X.*.x.U.M.n.{.|.|.|.|.|.|.|.|.",
"|.|.|.|.|.|.|.|.|.|.|.|.|.|.|.|.|.|.|.|.|.|.|.|.|.|.|.|.|.{.H.*.X.i.U.H.S.u.b.c.c.S.{.'.|.|.|.|.[.|.",
"|.|.|.|.|.|.|.|.|.|.|.|.|.|.|.|.|.|.|.|.|.|.|.|.|.|.|.|.|.S.u.*.c.{.|.{.c.n.S.n.S.S.n.x.{.|.|.|.`.|.",
"|.|.|.|.|.|.|.|.|.|.|.|.|.|.|.|.|.|.|.|.|.|.|.|.|.|.|.|.S.i.o.:.W.|.{.U.G.x.S./.|.{.L.b.E.|.|.|.).|.",
"|.|.|.|.|.|.|.|.|.|.|.|.|.|.|.|.|.|.|.|.|.|.|.|.|.|.|.S.:.*.*.G.|.{.S.S.n.U.|.|.|.{.^.W.u.H.|.|.^.|.",
"|.|.|.|.|.|.|.|.|.|.|.|.|.|.|.|.|.|.|.|.|.|.|.|.|.|._.n.9.X.l./.|.S.M.u._.|.|.|.|.|.'.S.9.x.|.|.^.|.",
"|.|.|.|.|.|.|.|.|.|.|.|.|.|.|.|.|.|.|.|.|.|.|.|.|.{.c.x.Y :.W.|.^.M.;.c.|.|.|.|.|.|.|./.:.u.'.|.!.{.",
"|.|.|.|.|.|.|.|.|.|.|.|.|.|.|.|.|.|.|.|.|.|.|.|.|.W.n.u.X.W.^.|.c.n.u./.|.|.|.|.|.|.|.{.W.:.^.|.!.{.",
"|.|.|.|.|.|.|.|.|.|.|.|.|.|.|.|.|.|.|.|.|.|.|.|.|.W.i.o.c.|.|.^.*.H.E.|.|.|.|.|.|.|.{.!.{.F.x.{.!.[.",
"|.|.|.|.|.|.|.|.|.|.|.|.|.|.|.|.|.|.|.|.|.|.|.|.|.U.X.;.W.|.|.^.c.'._.|.|.|.|.|.|.|.).T.^.W.x.W.!.`.",
"|.|.|.|.|.|.|.|.|.|.|.|.|.|.|.|.|.|.|.|.|.|.|.|.|.S.:.H.{.|.{.S.E.'.W.|.|.|.|.|.|.|.P.L.R./.*.F.R.).",
"|.|.|.|.|.|.|.|.|.|.|.|.|.|.|.|.|.|.|.|.|.|.|.|.|.n.E./.W.S.u.X.x.F.c.W.|.|.|.|.|.|.D.!.h.'.l.n.R.!.",
"|.|.|.|.|.|.|.|.|.|.|.|.|.|.|.|.|.|.|.|.|.|.|.|.^.x.W.c.o.x.n.c.x.c.c.n.W.^.|.|.|.|.D.`.a.W.W.M.R.R.",
"|.|.|.|.|.|.|.|.|.|.|.|.|.|.|.|.|.|.|.|.|.|.|.|.n.M.n.*.:.W.c.M.c.M.U.^.Z.c.{.|.|.|.g.`.f.s.'.W.R.L.",
"|.|.|.|.|.|.|.|.|.|.|.|.|.|.|.|.|.|.|.|.|.|.|.{.9.x.*.*.U.L.:.S.S.{.|.|.^.n.n.|.|.|.5.D.B.] R.[.L.K.",
"|.|.|.|.|.|.{.|.|.|.|.|.|.|.|.|.|.|.|.|.|.|.|.{.9.u.X.c.{.b.*.M.|.|.[.|.{.c.o.^.[.|.$.s.R.b h.{.K.D.",
"|.|.|.|.|.].~.|.|.|.|.|.|.|.|.|.|.|.|.|.|.|.|.).&.o.l./.'.w.o.^.|.|.!.].|./.-.L.!.|.3. .).D @.`.K.B.",
"].].].].}.~.~.|.|.|.'.H._.W.^.{.|.|.|.{.|.|.|.^.` *.^.|.S.&.g.`.|.|.I.!.|.|.A.&.K.|.6.I `.@.[ R.K.k.",
"].^.I.Y.Y.V.K.|.|.'.S.c.x.x.c.u.S.|.|.).|.|.|.W.J c.{.|.S.0.C.R.|.|.P.P.|.|.T.K C.|.7.F (.p.U B.K.4.",
").U.L.F.W.k.8.W.E.Z.U.b.x.U.|.S.*.S.|.[.^.|.|.U.} W.{.|.F.y.K.k.{.|.P.K.|.|.{...b.|.e.' J.k.P g.D.! ",
"^.'.W.H._.V.q.x.u.W.|.L.c.S.E.'.u.o.S.|.K.^.L.x.} k.`.^./.r.K.a.!.|.P.V.|.{.{.8.g.|.t.~ v.D.n s.k.Q ",
"{.|.|.^.F.t.N.l.o.F.{.K.D.S.x.W.U.o.u.W.A.w.=.x.$.{ m.c.'.e.K.f.D.|.P.y.{.[.[.e.4.{.5.F x.D.c s.7./ ",
"R.|.|.|.b.%.j.c.l.g.^.D.K.D.M.x.D.c.*.x.b.' 8./.t.$.g.S.W.6.N.k.5.|.I.e.`.[.^.( B W.%.l <.k.2 1.@.Q ",
"k.|.|.|.C.$.' n.U.8.W.N.L.g.R.x.g.N.;.o.F.+.8.{.j.6.f.^.K.$.y.D.{ I.I.) K.W.b.Z x `.5.V ,.k.* [ +.9 ",
"k.R.|.|.N.#.K c.).8.T.N.K.a.B.R.q.q.c.u.).j.%.|.k.) +.`.V.A 4.A.S y.R.R t.S.9.Z V R.$.W U h.; L +.- ",
"D.f.`.|.N.Q } A.L.q.T.k.N.f.5.).@.%.W.n.F.t.W |.B.M W =.` v B w.S $.R.q ! b.s.Q ^ k.{ Z L a.3 j +.& ",
"R.5.L.|.k.0 @.L.k.5.T.g.t.q.{ D.K ! P.W.M.7.x ).k.x ' K $.W B 9.' 0 x.7 M S.N.R 5.$.b M m @.M n { - ",
"R.f.q.{.k.> 5.^.5.W ^.k.! B.+.$.W S e.^.S.4.S B.j.3 H { ( v 8 A.g.M b.> 7 ^.k.M q.x = x b F N D b - ",
"R.D.^ P.A.+ 5.{.q.V '.A.l B.f.E ! M / ^.F.+.@.@.@.* } @.5 6 N D.D.R S.; 9 [.f.5 a.x X l C f N ] r @ ",
"B.R.W y.J.O $.{.N.W `.D.S D.D.7 ^ x 7 R.L.! 5.S 2 : 5.a.; 2 M B.R.M W.3 9 `.7., q.V X l F r N @.< O ",
"t.!.^ 3.R.O Q {.j.x D.A.M k.^.M ^ l > R.D.S @.^ # : $.s.3 2 7 j.I.5 F.l x ).3.: +.x o s ~ r M p.r # ",
"$.R.q.) (.& N {.7.3 +.@.3 7.`.N S s - R.B.M ~ @.% = W s.x 2 5 q.D.- m.b 3 R.+.= x 2 % d W d x a.r # ",
"Q D.V.R (.: N `.5.2 s l 2 $.`.M l 2 + K.k.x x ~ % = M m.3 # 3 5.k.# g.F 2 D.! = = s 1 d W b x g.i # ",
"N N.D.5 W.3 9 ).+.2 = = = _ !.x i 1 . N.f.k 1 s = 1 x A.: $ 2 $.a.# 5.] 2 k.E = = F d f S C l k.l # ",
"7 f.B.; D.x 4 R.! = = = % E K.k = % . q.7.3 o l d p 3 g.= = 2 ^ 8.# @.[ 1 p.M i i @.d a V F k k.V # ",
"3 5.g.# a.b - D.E = % = 1 M h.s = < . @.5.3 % F D f : =.1 i i E @.# ~  .1 @.z d l s.i a x D 3 k.S # ",
": _ a.# ^ l # h.M i 1 r p 5 a.s = w X ~ +.2 i @.D p = | r p p M ] # V  .= | 3 f c d.1 y l n : f.F . ",
"2 E @.# x d # p.z d p a f , @.i = w X b ~ 2 p 1.m r = F t r t l D # x | % ' : t h 2.% y i h * 5.D . ",
"i x ] $ 2 r #  .3 p a h p = ' i = t o f V = r >.m w 1 c t < r 3 n % l { % m = r a <.< y i g # +.m . ",
"r 3 L % = w % D : r r u r % b r = y % p l % w P n r r h e r t : h = s { % h = t p T 1 u r y . S m   ",
"w * n % = w % c & r w u r % d t = y w r i % r G j r r y e r t = u = s ~ % a % t t G 1 u r y . k n   "
};
