/* XPM */
static char *kome[] = {
/* columns rows colors chars-per-pixel */
"50 47 18 1 ",
"  c #D8D6D6",
". c #D9D8D7",
"X c #DBD9D8",
"o c #E0DFDF",
"O c #E1E0DF",
"+ c #F9EFDB",
"@ c #F9F1DE",
"# c #E6E5E4",
"$ c #E8E7E7",
"% c #EAE9E8",
"& c #FAF2E1",
"* c #F0F0EF",
"= c #FBF6E9",
"- c #FCF8EF",
"; c #F6F6F5",
": c #F8F8F7",
"> c #F8F7F8",
", c #FFFFFF",
/* pixels */
",,,,,,,,,,,,,,,,,,,,,,,,,,,,,,,,,,,,,,,,,,,,,,,,,,",
",,,,,,,,,,,,,,,,,,,,,,,,,,,,,,,,,,,,,,,,,,,,,,,,,,",
",,,,,,,,,,,,,,,,,,,,,,,,,,,,,,,,,,,,,,,,,,,,,,,,,,",
",,,,,,,,,,,,,,,,,,,,,,,,,,,,,,,,,,,,,,,,,,,,,,,,,,",
",,,,,,,,,,,,,,,,,,,,,,,,,,,,,,,,,,,,,,,,,,,,,,,,,,",
",,,,,,,,,,,,,,,,,,,,,,;##;,,,,,,,,,,,,,,,,,,,,,,,,",
",,,,,,,,,,,,,,,,,,,,;XX%% %,,,,,,,,,,,,,,,,,,,,,,,",
",,,,,,,,,,,,,,,,,,,%X;,,,, ,,,,,,,,,,,,,,,,,,,,,,,",
",,,,,,,,,,,,,,,,,,#X,,,,,,##,,,,,,,,,,,,,,,,,,,,,,",
",,,,,,,,,,,,,,,,,%X,,,,,,,, ;,,,,,,,,,,,,,,,,,,,,,",
",,,,,,,,,,,,,,,,: ,,,,,,,,,; ,,,,,,,,,,,,,,,,,,,,,",
",,,,,,,,,,,,,,,,X%,,,,,,,,,,%X,,,,,,,,,,,,,,,,,,,,",
",,,,,,,,,,,,,,,;X,,,,,,,,,,,,% %,,,,,,,,,,,,,,,,,,",
",,,,,,,,,,,,,,,X*,,,,,,,,,,,,,;XX$,,,,,,,,,,,,,,,,",
",,,,,,,,,,,,,,;X,,,,,,,,,,,,,,,,>#X,,,,,,,,,,,,,,,",
",,,,,,,,,,,,,,#%,,,,,,,,,,,,,,,,,,##,,,,,,,,,,,,,,",
",,,,,,,,,,,,,,X;,,,,,,,,,,,,,,,,,,, ,,,,,,,,,,,,,,",
",,,,,,,,,,,,,;X,,,,,,,,,,,,,,,,,,,,O;,,,,,,,,,,,,,",
",,,,,,,,,,,,,%#,=,,,,,,,,,,,,,,,,,,%#,,,,,,,,,,,,,",
",,,,,,,,,,,,,#%,&:,,,,,,,,,,,,,,,,,;X,,,,,,,,,,,,,",
",,,,,,,,,,,,,X;,@:,,,,,,,,,,,,,,,,,,X,,,,,,,,,,,,,",
",,,,,,,,,,,,,X,:@:,,,,,,,,,,,,,,,,,,X,,,,,,,,,,,,,",
",,,,,,,,,,,,,X,:+:,,,,,,,,,,,,,,,,,,X;,,,,,,,,,,,,",
",,,,,,,,,,,,,X,-+=,,,,,,,,,,,,,,,,,,o;,,,,,,,,,,,,",
",,,,,,,,,,,,,X,=+&,,,,,,,,,,,,,,,,,,o;,,,,,,,,,,,,",
",,,,,,,,,,,,,X,=+&,,,,,,,,,,,,,,,,,,o;,,,,,,,,,,,,",
",,,,,,,,,,,,,X,-+@:,,,,,,,,,,,,,,,,,X;,,,,,,,,,,,,",
",,,,,,,,,,,,,X,:++-,,,,,,,,,,,,,,,,,X,,,,,,,,,,,,,",
",,,,,,,,,,,,,X;:@+&,,,,,,,,,,,,,,,,,X,,,,,,,,,,,,,",
",,,,,,,,,,,,,#%,@+@:,,,,,,,,,,,,,,,;X,,,,,,,,,,,,,",
",,,,,,,,,,,,,%#,&++=,,,,,,,,,,,,,,,%#,,,,,,,,,,,,,",
",,,,,,,,,,,,,,X,=++@:,,,,,,,,,,,,,,o;,,,,,,,,,,,,,",
",,,,,,,,,,,,,,X;:@++&,,,,,,,,,,,,,,X,,,,,,,,,,,,,,",
",,,,,,,,,,,,,,%#,&+++=,,,,,,,,,,,,%#,,,,,,,,,,,,,,",
",,,,,,,,,,,,,,, ,:@++@=,,,,,,,,,,,X;,,,,,,,,,,,,,,",
",,,,,,,,,,,,,,,##,=++++&:,,,,,:=,%o,,,,,,,,,,,,,,,",
",,,,,,,,,,,,,,,, ;,&+++++&&=&&@=: ;,,,,,,,,,,,,,,,",
",,,,,,,,,,,,,,,,;.,:&++++++++@-,X%,,,,,,,,,,,,,,,,",
",,,,,,,,,,,,,,,,,%X,:&++++++&:,##,,,,,,,,,,,,,,,,,",
",,,,,,,,,,,,,,,,,,#X;,=&@@&-,,X#,,,,,,,,,,,,,,,,,,",
",,,,,,,,,,,,,,,,,,,% #:,,,,,% %,,,,,,,,,,,,,,,,,,,",
",,,,,,,,,,,,,,,,,,,,,#XXo#XX#;,,,,,,,,,,,,,,,,,,,,",
",,,,,,,,,,,,,,,,,,,,,,,;;;;,,,,,,,,,,,,,,,,,,,,,,,",
",,,,,,,,,,,,,,,,,,,,,,,,,,,,,,,,,,,,,,,,,,,,,,,,,,",
",,,,,,,,,,,,,,,,,,,,,,,,,,,,,,,,,,,,,,,,,,,,,,,,,,",
",,,,,,,,,,,,,,,,,,,,,,,,,,,,,,,,,,,,,,,,,,,,,,,,,,",
",,,,,,,,,,,,,,,,,,,,,,,,,,,,,,,,,,,,,,,,,,,,,,,,,,"
};
