/* XPM */
static char *kuti[] = {
/* columns rows colors chars-per-pixel */
"50 39 120 2 ",
"   c #B13734",
".  c #B33936",
"X  c #BB3D37",
"o  c #BB373B",
"O  c #B53E3C",
"+  c #BD393D",
"@  c #BC403A",
"#  c #C3433A",
"$  c #C9463B",
"%  c #CB493E",
"&  c #D34E3F",
"*  c #C33740",
"=  c #C33A42",
"-  c #C93A46",
";  c #CE3A4A",
":  c #D23A4D",
">  c #D73D53",
",  c #DC3C54",
"<  c #B64442",
"1  c #BA4D4B",
"2  c #BE5856",
"3  c #BF5C5A",
"4  c #C7424C",
"5  c #CC5046",
"6  c #D05044",
"7  c #DD5542",
"8  c #D8594A",
"9  c #C84C55",
"0  c #D64759",
"q  c #DD445B",
"w  c #DE485F",
"e  c #C05D5B",
"r  c #E45944",
"t  c #E35F4B",
"y  c #DB6153",
"u  c #E5614E",
"i  c #E66450",
"p  c #E76A57",
"a  c #DF4C63",
"s  c #DE5167",
"d  c #DF5368",
"f  c #E0556B",
"g  c #E1596E",
"h  c #E15C71",
"j  c #C66D6C",
"k  c #CF696D",
"l  c #C7706E",
"z  c #DD6979",
"x  c #E87665",
"c  c #E87867",
"v  c #E97C6C",
"b  c #E26175",
"n  c #E36579",
"m  c #E3697C",
"M  c #E47E72",
"N  c #E97F70",
"B  c #E98273",
"V  c #EB8A7C",
"C  c #E46D80",
"Z  c #E57485",
"A  c #E77D8E",
"S  c #CE8382",
"D  c #DA838A",
"F  c #D18B8A",
"G  c #D59493",
"H  c #E8828E",
"J  c #ED9689",
"K  c #ED9A8E",
"L  c #E78091",
"P  c #E88494",
"I  c #E98897",
"U  c #E29494",
"Y  c #EA919F",
"T  c #DAA09F",
"R  c #EFA99F",
"E  c #EB96A3",
"W  c #EC99A6",
"Q  c #EC9EAA",
"!  c #DBA4A3",
"~  c #DEACAB",
"^  c #EDA1AD",
"/  c #E0AFAE",
"(  c #EFA9A8",
")  c #F1AEA4",
"_  c #EEA6B2",
"`  c #EEA9B4",
"'  c #EFADB8",
"]  c #F0AFBA",
"[  c #E2B5B4",
"{  c #E5BDBC",
"}  c #F3BBB3",
"|  c #F0B3BD",
" . c #E6C0BF",
".. c #F4C2BB",
"X. c #F1B6C0",
"o. c #F2BAC3",
"O. c #E9C8C7",
"+. c #EBCCCC",
"@. c #F4C6C3",
"#. c #F4C5CC",
"$. c #F4C8CF",
"%. c #F7D3CD",
"&. c #F5CCD3",
"*. c #EFD7D7",
"=. c #F6D3D3",
"-. c #F6D4DA",
";. c #F7D8DD",
":. c #F9DFDB",
">. c #F7DCE0",
",. c #F8DFE4",
"<. c #F2E1E0",
"1. c #F4E2E2",
"2. c #F9E0E4",
"3. c #FBE9E6",
"4. c #F9E4E8",
"5. c #F7EDEC",
"6. c #FBECEF",
"7. c #FBEEF1",
"8. c #FCF4F5",
"9. c #FFFFFF",
/* pixels */
"9.9.9.9.9.9.9.9.9.9.9.9.9.9.9.9.9.9.9.9.9.9.9.9.9.9.9.9.9.9.9.9.9.9.9.9.9.9.9.9.9.9.9.9.9.9.9.9.9.9.",
"9.9.9.9.9.9.9.9.9.9.9.9.9.9.9.9.9.9.9.9.9.9.9.9.9.9.9.9.9.9.9.9.9.9.9.9.9.9.9.9.9.9.9.9.9.9.9.9.9.9.",
"9.9.9.9.9.9.9.9.9.9.9.9.9.9.9.9.9.9.9.9.9.9.9.9.9.9.9.9.9.9.9.9.9.9.9.9.9.9.9.9.9.9.9.9.9.9.9.9.9.9.",
"9.9.9.9.9.9.9.9.9.9.9.9.9.9.9.>.W Z A ] ,.9.9.9.9.9.9.9.9.6.&.W L ^ 2.9.9.9.9.9.9.9.9.9.9.9.9.9.9.9.",
"9.9.9.9.9.9.9.9.9.9.9.9.9.4.Q d , , , , s Z Q #.2.4.;.X.I h q , , , g ' 8.9.9.9.9.9.9.9.9.9.9.9.9.9.",
"9.9.9.9.9.9.9.9.9.9.9.2.Q g , , , , , , , , , q a d a , , , , , , , , q Z &.9.9.9.9.9.9.9.9.9.9.9.9.",
"9.9.9.9.9.9.9.9.7.#.I d , , , , , , , , , , , , , , , , , , , , , , , , , a P =.9.9.9.9.9.9.9.9.9.9.",
"9.9.9.9.9.8.&.E b q , , , , , , , , , , , , , , , , , , , , , , , , , , , , , a P &.9.9.9.9.9.9.9.9.",
"9.9.9.4.^ m q , , , , , , , , , , , , , , , , , , , , , , , , , , , , , , , , , , a A &.8.9.9.9.9.9.",
"9.9.9.Q , , , , , , , , , , , q q a f g b n m m m n b h f a w q , , , , , , , , , , , q C ` ,.9.9.9.",
"9.9.9._ , , , , q a h Z I ^ | #.-.,.4.6.8.8.8.8.8.8.8.7.4.2.-.&.X.^ I Z b a q , , , , , , , a | 9.9.",
"9.9.9.o., : ; = D ;.8.9.9.9.9.9.9.9.9.9.9.9.9.9.9.9.9.9.9.9.9.9.9.9.9.9.8.,.#.E 0 , , , , , , E 9.9.",
"9.9.9.-.q o . . < S O.6.9.9.9.9.9.9.9.9.9.9.9.9.9.9.9.9.9.9.9.9.9.9.9.9.9.9.1.F O o = ; , , q $.9.9.",
"9.9.9.6.h * . . . . O 3 S ~ +.1.8.9.9.9.9.9.9.9.9.9.9.9.9.9.9.9.9.9.5.*.[ l 1 . . . . . : , n 8.9.9.",
"9.9.9.9.P : . . . . . .   . O 1 e j S G T ~ [ { {  .{ { [ / ! G S j 2 < .   . . . . . + , , ^ 9.9.9.",
"9.9.9.9.X., + . . . . . . . . . . . . . . . .     O       . . . . . . . . . . . . . . ; , s ,.9.9.9.",
"9.9.9.9.4.g ; . . . . . . . . . . . . . . . . . . . . . . . . . . . . . . . . . .   o , , I 9.9.9.9.",
"9.9.9.9.9.E , + . . . . . . . . . . . . . . . . . . .   . . . . . . . . . . . . . . : , a -.9.9.9.9.",
"9.9.9.9.9.,.f : . . . . . . . . .   X X +     . . . X # $ # # X   . . . . . . . . - , , I 9.9.9.9.9.",
"9.9.9.9.9.9.Q , - . . . . .   # & 7 r r r 7 & # + % 7 r r r r r 7 %   . . . . . = , , g 2.9.9.9.9.9.",
"9.9.9.9.9.9.6.m , = . . .   6 t u u u u u u u u u u i i u u u u i i 8 @ . . . + > , q | 9.9.9.9.9.9.",
"9.9.9.9.9.9.9.&.a > 4 < . 5 p p p p p p p p p p p p p p p p p p p p p y @ 1 9 > , , L 9.9.9.9.9.9.9.",
"9.9.9.9.9.9.9.9.` q , s k M c x x x x x x x x x x x c c c v x x x v B K U z q , , g ,.9.9.9.9.9.9.9.",
"9.9.9.9.9.9.9.9.9.I , , a H ( R J V B N v v N N B B B B B B V K ) ..@.E f , , , q X.9.9.9.9.9.9.9.9.",
"9.9.9.9.9.9.9.9.9.8.P , , , d P o.=.=.@...} } } } } ..@.%.:.3.2.$.I f , , , , , Y 9.9.9.9.9.9.9.9.9.",
"9.9.9.9.9.9.9.9.9.9.8.I , , , , q b I | =.2.7.8.8.8.7.4.-.X.I b q , , , , , , P 8.9.9.9.9.9.9.9.9.9.",
"9.9.9.9.9.9.9.9.9.9.9.8.W q , , , , , , q s h b n n h d q , , , , , , , , q I 8.9.9.9.9.9.9.9.9.9.9.",
"9.9.9.9.9.9.9.9.9.9.9.9.9.o.h , , , , , , , , , , , , , , , , , , , , , d ' 9.9.9.9.9.9.9.9.9.9.9.9.",
"9.9.9.9.9.9.9.9.9.9.9.9.9.9.4.E s , , , , , , , , , , , , , , , , , w P ;.9.9.9.9.9.9.9.9.9.9.9.9.9.",
"9.9.9.9.9.9.9.9.9.9.9.9.9.9.9.9.,.W b q , , , , , , , , , , , q f I &.9.9.9.9.9.9.9.9.9.9.9.9.9.9.9.",
"9.9.9.9.9.9.9.9.9.9.9.9.9.9.9.9.9.9.7.&.^ A n g d s d g n A W #.4.9.9.9.9.9.9.9.9.9.9.9.9.9.9.9.9.9.",
"9.9.9.9.9.9.9.9.9.9.9.9.9.9.9.9.9.9.9.9.9.9.8.6.4.2.4.6.8.9.9.9.9.9.9.9.9.9.9.9.9.9.9.9.9.9.9.9.9.9.",
"9.9.9.9.9.9.9.9.9.9.9.9.9.9.9.9.9.9.9.9.9.9.9.9.9.9.9.9.9.9.9.9.9.9.9.9.9.9.9.9.9.9.9.9.9.9.9.9.9.9.",
"9.9.9.9.9.9.9.9.9.9.9.9.9.9.9.9.9.9.9.9.9.9.9.9.9.9.9.9.9.9.9.9.9.9.9.9.9.9.9.9.9.9.9.9.9.9.9.9.9.9.",
"9.9.9.9.9.9.9.9.9.9.9.9.9.9.9.9.9.9.9.9.9.9.9.9.9.9.9.9.9.9.9.9.9.9.9.9.9.9.9.9.9.9.9.9.9.9.9.9.9.9.",
"9.9.9.9.9.9.9.9.9.9.9.9.9.9.9.9.9.9.9.9.9.9.9.9.9.9.9.9.9.9.9.9.9.9.9.9.9.9.9.9.9.9.9.9.9.9.9.9.9.9.",
"9.9.9.9.9.9.9.9.9.9.9.9.9.9.9.9.9.9.9.9.9.9.9.9.9.9.9.9.9.9.9.9.9.9.9.9.9.9.9.9.9.9.9.9.9.9.9.9.9.9.",
"9.9.9.9.9.9.9.9.9.9.9.9.9.9.9.9.9.9.9.9.9.9.9.9.9.9.9.9.9.9.9.9.9.9.9.9.9.9.9.9.9.9.9.9.9.9.9.9.9.9.",
"9.9.9.9.9.9.9.9.9.9.9.9.9.9.9.9.9.9.9.9.9.9.9.9.9.9.9.9.9.9.9.9.9.9.9.9.9.9.9.9.9.9.9.9.9.9.9.9.9.9."
};
