/* XPM */
static char *start[] = {
/* columns rows colors chars-per-pixel */
"50 46 31 1 ",
"  c #020202",
". c #0B0B0B",
"X c #161616",
"o c #1F1F1F",
"O c #212121",
"+ c #2E2E2E",
"@ c #313131",
"# c #3C3C3C",
"$ c #474747",
"% c #494949",
"& c #555555",
"* c #585858",
"= c #606060",
"- c #6F6F6F",
"; c #767676",
": c #868686",
"> c #8F8F8F",
", c #929292",
"< c #989898",
"1 c #A6A6A6",
"2 c #A9A9A9",
"3 c #B1B1B1",
"4 c #B8B8B8",
"5 c #C8C8C8",
"6 c #CBCBCB",
"7 c #D2D2D2",
"8 c #D8D8D8",
"9 c #E1E1E1",
"0 c #EAEAEA",
"q c #F2F2F2",
"w c #FFFFFF",
/* pixels */
"wwwwwwwwwwwwwwwwwwwwwwwwwwwwwwwwwwwwwwwwwwwwwwwwww",
"wwwwwwwwwwwwwwwwwwwwwwwwwwwwwwwwwwwwwwwwwwwwwwwwww",
"wwwwwwwwwwwwwwwwwwwwwww8340wwwwwwwwwwwwwwwwwwwwwww",
"wwwwwwwwwwwwwwwwwwwwww2O  #6wwwwwwwwwwwwwwwwwwwwww",
"wwwwwwwwwwwwwwwwwwwww8O    $qwwwwwwwwwwwwwwwwwwwww",
"wwwwwwwwwwwwwwwwwwwww1     X7wwwwwwwwwwwwwwwwwwwww",
"wwwwwwwwwwwwwwwwwwwww2     X7wwwwwwwwwwwwwwwwwwwww",
"wwwwwwwwwwwwwwwwwwwww9+    *qwwwwwwwwwwwwwwwwwwwww",
"wwwwwwwwwwwwwwwwwwwwww6#XX&7wwwwwwwwwwwwwwwwwwwwww",
"wwwwwwwwwwwwwwwwwwwwwwq9660qwwwwwwwwwwwwwwwwwwwwww",
"wwwwwwwwwwwwwwwwwwww2%######=7wwwwwwwwwwwwwwwwwwww",
"wwwwwwwwwwwwwwwwwww1X        +6wwwwwwwwwwwwwwwwwww",
"wwwwwwwwwwwwwwwwww1X          @6wwwwwwwwwwwwwwwwww",
"wwwwwwwwwwwwwwwww2X .       .  @6wwwwwwwwwwwwwwwww",
"wwwwwwwwwwwwwwww1X X:O      %;  +6wwwwwwwwwwwwwwww",
"wwwwwwwwwwwwwww1X X19O      &q;  +6wwwwwwwwwwwwwww",
"wwwwwwwwwwwwww2X X1w9O      &wq;  +6wwwwwwwwwwwwww",
"wwwwwwwwwwwwwq#  ;ww9O      &wwq$  ;wwwwwwwwwwwwww",
"wwwwwwwwwwwwww,. O4w9O      &ww,X o4wwwwwwwwwwwwww",
"wwwwwwwwwwwwwww,. o40O      &w,. O4wwwwwwwwwwwwwww",
"wwwwwwwwwwwwwwww,. O1+      &>. O4wwwwwwwwwwwwwwww",
"wwwwwwwwwwwwwwwww,. @O      @o O4wwwwwwwwwwwwwwwww",
"wwwwwwwwwwwwwwwwww<+-O      $*@4wwwwwwwwwwwwwwwwww",
"wwwwwwwwwwwwwwwwwww09+      &00wwwwwwwwwwwwwwwwwww",
"wwwwwwwwwwwwwwwwwwww9O      &wwwwwwwwwwwwwwwwwwwww",
"wwwwwwwwwwwwwwwwwwww9+  =%  &wwwwwwwwwwwwwwwwwwwww",
"wwwwwwwwwwwwwwwwwwww9+  4:  &wwwwwwwwwwwwwwwwwwwww",
"wwwwwwwwwwwwwwwwwwww9+  3:  &wwwwwwwwwwwwwwwwwwwww",
"wwwwwwwwwwwwwwwwwwww0+  3:  &wwwwwwwwwwwwwwwwwwwww",
"wwwwwwwwwwwwwwwwwwww9O  3:  &wwwwwwwwwwwwwwwwwwwww",
"wwwwwwwwwwwwwwwwwwww9O  3:  &wwwwwwwwwwwwwwwwwwwww",
"wwwwwwwwwwwwwwwwwwww9O  3:  &wwwwwwwwwwwwwwwwwwwww",
"wwwwwwwwwwwwwwwwwwww9O  4:  &wwwwwwwwwwwwwwwwwwwww",
"wwwwwwwwwwwwwwwwwwww9O  4:  &wwwwwwwwwwwwwwwwwwwww",
"wwwwwwwwwwwwwwwwwwww9+  3:  &wwwwwwwwwwwwwwwwwwwww",
"wwwwwwwwwwwwwwwwwwww9+  3:  &wwwwwwwwwwwwwwwwwwwww",
"wwwwwwwwwwwwwwwwwwww9O  3:  &wwwwwwwwwwwwwwwwwwwww",
"wwwwwwwwwwwwwwwwwwww9O  3:  &wwwwwwwwwwwwwwwwwwwww",
"wwwwwwwwwwwwwwwwwwww9+  3:  &wwwwwwwwwwwwwwwwwwwww",
"wwwwwwwwwwwwwwwwwwww9+  3:  &wwwwwwwwwwwwwwwwwwwww",
"wwwwwwwwwwwwwwwwwwww9O  3:  &wwwwwwwwwwwwwwwwwwwww",
"wwwwwwwwwwwwwwwwwwww0+  3:  &wwwwwwwwwwwwwwwwwwwww",
"wwwwwwwwwwwwwwwwwwwww* +83X >wwwwwwwwwwwwwwwwwwwww",
"wwwwwwwwwwwwwwwwwwwww937ww64qwwwwwwwwwwwwwwwwwwwww",
"wwwwwwwwwwwwwwwwwwwwwwwwwwwwwwwwwwwwwwwwwwwwwwwwww",
"wwwwwwwwwwwwwwwwwwwwwwwwwwwwwwwwwwwwwwwwwwwwwwwwww"
};
