/* XPM */
static char *_[] = {
/* columns rows colors chars-per-pixel */
"49 50 215 2 ",
"   c #381308",
".  c #362C10",
"X  c #3A3212",
"o  c #3F3A17",
"O  c #44190C",
"+  c #45170B",
"@  c #531E0F",
"#  c #40250F",
"$  c #562514",
"%  c #452612",
"&  c #632B19",
"*  c #6A321E",
"=  c #7A3921",
"-  c #743923",
";  c #6A3522",
":  c #3D4E1C",
">  c #3F6621",
",  c #46491C",
"<  c #4B4B22",
"1  c #585225",
"2  c #7C432C",
"3  c #605A2E",
"4  c #416421",
"5  c #4B6C23",
"6  c #576928",
"7  c #4D712B",
"8  c #497326",
"9  c #5A7C2C",
"0  c #577729",
"q  c #60612C",
"w  c #6C6333",
"e  c #6C683A",
"r  c #776739",
"t  c #6A7735",
"y  c #637E2D",
"u  c #716E45",
"i  c #6D7E41",
"p  c #7B794A",
"a  c #813E25",
"s  c #82432B",
"d  c #8C442A",
"f  c #8D492E",
"g  c #874127",
"h  c #94442B",
"j  c #934B2E",
"k  c #984A2F",
"l  c #874933",
"z  c #8B4C32",
"x  c #954F31",
"c  c #9C4D32",
"v  c #8F5034",
"b  c #945135",
"n  c #9B5435",
"m  c #9B5638",
"M  c #9D593A",
"N  c #935539",
"B  c #A35335",
"V  c #A55738",
"C  c #A35B3B",
"Z  c #AA5C3A",
"A  c #A65837",
"S  c #85683D",
"D  c #A7603E",
"F  c #AA613E",
"G  c #B2633E",
"H  c #9B6C46",
"J  c #94764A",
"K  c #9A7B52",
"L  c #867048",
"P  c #A56140",
"I  c #AC6441",
"U  c #A66E47",
"Y  c #B16542",
"T  c #B46A45",
"R  c #BA6C45",
"E  c #B56D49",
"W  c #B96F49",
"Q  c #AC754B",
"!  c #A4764A",
"~  c #B3744D",
"^  c #BD724B",
"/  c #B47A4F",
"(  c #BB754B",
")  c #AD7C55",
"_  c #B37D54",
"`  c #BD7C52",
"'  c #B47751",
"]  c #B77F79",
"[  c #C1764D",
"{  c #C4794F",
"}  c #C97A4E",
"|  c #C67B51",
" . c #CA7E52",
".. c #C17352",
"X. c #5D842A",
"o. c #5C8530",
"O. c #648C2C",
"+. c #63892C",
"@. c #638831",
"#. c #698E33",
"$. c #6C9332",
"%. c #6C9B32",
"&. c #689934",
"*. c #749B35",
"=. c #69932E",
"-. c #7CA538",
";. c #6BA136",
":. c #698844",
">. c #798E55",
",. c #7D9853",
"<. c #8EB73E",
"1. c #81AA38",
"2. c #9E9D46",
"3. c #8A8755",
"4. c #80945F",
"5. c #908C4C",
"6. c #AA875B",
"7. c #BD8154",
"8. c #B1835C",
"9. c #A79A55",
"0. c #85A247",
"q. c #94B941",
"w. c #8BA957",
"e. c #93B35A",
"r. c #B1A85E",
"t. c #9C9567",
"y. c #8B9461",
"u. c #B18C64",
"i. c #BF8E61",
"p. c #A9976D",
"a. c #B39B79",
"s. c #A88F69",
"d. c #9AAE7C",
"f. c #B1A777",
"g. c #A8B877",
"h. c #B4B679",
"j. c #ADA86E",
"k. c #C58255",
"l. c #CD8154",
"z. c #C3855B",
"x. c #CE8458",
"c. c #CD8B5D",
"v. c #D48656",
"b. c #D58957",
"n. c #D98C57",
"m. c #D58758",
"M. c #D68959",
"N. c #D98D59",
"B. c #DB915B",
"V. c #DA955F",
"C. c #E2995E",
"Z. c #E2975B",
"A. c #CC9A6B",
"S. c #D69463",
"D. c #D99462",
"F. c #DB9A67",
"G. c #D79A6A",
"H. c #D6997A",
"J. c #C8897B",
"K. c #DAA674",
"L. c #E1A36E",
"P. c #E1AA72",
"I. c #9BC142",
"U. c #A6C945",
"Y. c #B8D64A",
"T. c #BCDB52",
"R. c #AAC569",
"E. c #B7CC63",
"W. c #B3C878",
"Q. c #B4D26E",
"!. c #C4E34C",
"~. c #CBE253",
"^. c #C1E15F",
"/. c #D6E758",
"(. c #E1F15F",
"). c #CADC65",
"_. c #D9EA65",
"`. c #E9F47D",
"'. c #BD8780",
"]. c #ACBA8C",
"[. c #B6AB8A",
"{. c #C38E87",
"}. c #C8948D",
"|. c #D59C86",
" X c #CE9892",
".X c #C99898",
"XX c #D39E93",
"oX c #D9A185",
"OX c #DCA48D",
"+X c #D7A288",
"@X c #D7A194",
"#X c #D9A69A",
"$X c #DBA695",
"%X c #E1A992",
"&X c #D1A4A1",
"*X c #DEADA3",
"=X c #DBADAB",
"-X c #D6A8A8",
";X c #DFB1AE",
":X c #DEB2B3",
">X c #DFB5B9",
",X c #E0B5B5",
"<X c #B8C788",
"1X c #AEC483",
"2X c #CADD84",
"3X c #CCD78B",
"4X c #E8F387",
"5X c #E0EA98",
"6X c #CACCB2",
"7X c #D0DDB3",
"8X c #E0C1B6",
"9X c #E2BAC0",
"0X c #E9C5D2",
"qX c #F1D4EA",
"wX c #F8DDF8",
/* pixels */
"wXwX0X,XoX#X,X,X;XoX|.XX=X*X*X;X$XH.*X:X:X,X:X#XXX@X-X;X*XOX#X;X*XOX$X*X;XXXOX|.|.OX#X$X|.H.XX0XwX",
"wX9XS.B.N.N.M.m.M.B.l.l.M.N.N.M.N.B.M.v. .l.M.M.b.b.l.v.M.B.N.M.N.C.C.B.M.{ F  .C.V.b.N.n.n.v...J.",
"qXH.Z.M.v.v.v.v.v.v.F j l.v.l.l.v.^ l.v.v.v.v.v.v.v.{ { N.b.v.v.v.v.v.v.v.{ x { 7.~  .v.v.v.M. .G ",
"*XB.^ | v.v.v.v.v.v. .W v.b.^ ^ ^ = Y v.v.v.v.v.v.v.v.v.M.M.v.v.v.v.v.v.v.v.l.v.Y Y v.v.[ { Y v.R ",
"oXv.x ^ l.b [ M.m.v.v.b. .| v.v.^ x ^ m.m.m.v.v.v.v.v.v.v.v.v.v.v.v.v.v.v.v.F ^ M.M.b.| a M Y v.R ",
"OXb.l.m.| Y l.^ ^ v.v.M. .{ v.m.v.v.v.v.^  .v.l.v.v.v.v.v.v.v.v.v.v.v.v.m.v.^ [ v.I [ v.I ^ M.M.^ ",
"$XN. .m [ M.v.[ ^ v.[ [ m.v.m.^ | v.v.v.Y [ v. .[ Y v.v.v.m.{ Y v.v.v. .Y v.m.m.v.I { v.m. .v.v.Y ",
"%XN.I = I M.m.m.m.m.^ [ v.v.m.^ | v.v.m.m.v.v.v.^ I m.v.v.v.v.l.M.m.v.{ F v. .[ v.v.v.v.v.v.m.l.n ",
"H.n.v.| v.v.m.v.v.v.v.v.v.v.v.v.v.v.` l.v.v.v.v.m.Y W M.v.v.v.v.D.D.v.v.| v.v.l.v.v.v.v.v.^ I m.Y ",
"OXb.v.M. .x ^ m.v.D Y v.v.v.v.v.v.v.J J 7.m.v.v.v.{  .m.v.v.v.m.M.m.v.I x v.v.v.v.v.v.v.v. .[ m.[ ",
"#Xv.v.v.v.x Y M.v.E | v.v.v.v.v.v.v.7.h.p.` v.v.v.v.v.v.v.v.l.l.v.v.v. .{ v.v.v.v.v.v.v.v.v.v.v.G ",
"$Xv.m.m.M.{ | v.v.v.v.S.K.` v.v.v.v.k.h.5X6.l.k.l.v.l.z.u.J r U v.v.v.v.v.v.v.v.v.v.v.F.S.v.v.v.Z ",
"XX[ m.^ Y v.v.v.v.v.v.k.) P m.v.v.v.l.r.4Xh.! K ! k.a.].>.e Q m.m. .[ v.v.v.M.L.D.v.v.D.M.v.v.W j ",
"'.c l.I Z v.G.A. .v.v.l.I ~ k.l.v.v.l.9._._.5.h.3.[.].:.w k.M.v.v.v. .v.v.v.b.L.F.v.v.v.^  .v. .G ",
"}.[ v.v.v.v.z.H  .v.v.v.m.H e t.u.k.l.2.!./.0.<X,.d.o.w k.v.v.v.v.v.v.v.v.v.v.v.b.v.v.l.Z [ v.v.{ ",
" X .v. .[ m. .[ m.v.v.v.v.v.7.5.3Xj./ 2.!.~.-.:.7 @.6 Q N.m.v.v.v.v.v.v.v.M.D.v.v.v.v.v.v.v.v.v.v.",
"}.} m.m.v.m.m.m.m.m.v.v.m.m.m.k.9.3Xt.0.!.U.&.8 4 X.S x._ H l.v.v.v.v.v.v.M.F.v.v.v.v.v.v.v.v.v.l.",
"&X[ m.v.v.v.v.v.{ [ v.v.l._ _ | ` r.<X0.Y.-.&.4 5 y 6.t.u Q v.v.v.v.v.v.v.v.v.v.v.v.v.v.v.v.b.v.Z ",
"-X{ m.m.{ { v.m.[ [ M.k.a.6X6X[.p.J j.e.U.&.&.> 0 :.g.w.p K 8.k.v.v.v.v.v.v.v.v.v.l.l.v.v. .Y  .A ",
"-X .v.v.f d  .m.v.m.k.[.7X<XR.Q.2X<Xy.0.<.&.&.7 w.3X4X_.).R.W.f.8.v.v.v.v.v.v.v.b.Y m  .{  .m { Z ",
"=Xl.v.v.Y [ v.v.v.x.p.d.i 6 0 $.I.^.2X,.&.;.%.g.4X_.T.q.*.$.$.e.g.8.v.v.v.v.v.m.v.{ Y [ Y m.m.M.R ",
"=Xv.v.v.m.m.v.v.v.) p J / ` / S 9 q.T.E.o.%.W.`.~.I.$.4 : 3 r r t 3.7.v.v.M.P.`  .m.m.v.m.M.v.m.[ ",
"-Xl.v.v.v. .v.v.v.Q _ m.m.v.v.l.H 0 q.Y.&.w.`.~.q.$.4 < ! l.m.v.` J L l.v.l._ s [ v.v.v.| I l.v.[ ",
" Xx.M.v. .I v.v.v.v.m.v.v.k.u.p.s.u 7 I.*.E.(.I.&.0 < ~ M.v.v.v.v.m.' l.v.l.Y Z  .v.v.v. .F v.v.F ",
"{.[ M.m.m.v.| l.v.v.v.v.7.f.1Xw.e.g.:.#.-./.~.1.O.5 S M.v.v.v.v.v.v.v.v.v.v.v.v.v.v.v.v.v.v.v.v.G ",
"-X .m.m.[ M E  .v.v.v.l.3.>.t w 6 9 w.:.@./.Y.*.X.6 ` M.v.v.v.l.v.v.v.v.v.v.v.M.M.v.v.v.v.v.v.v.Z ",
">Xx.m.v.| I  .m.v.v.v.Q w ! k.v.| S 6 *.9 Y.U.=.X.q | v.v.v.v.[ | v.v.v.v.v.v.v.l.F l.[ l.v.v.v.^ ",
":Xx.v.v.v.M.M.m.v.v.v.~ ` M.v.v.M.M.r O.$.*.<.O.X.1 v ^ M.v.v.v. .l.m.v.v.v.v.v.I a { v.v.v.v.v. .",
":Xv.v.v.v.^ P v.v.v.v.v.v.v.v.l.^ [ U 6 &.X.-.O.X.< 2 v I I Z Z M Z Y l.v.v.v.v. .[ l.v.v.v.v.v.R ",
"}.[ v.v.v.I b  .v.v.v.v.m.v.v.l.I l * , O.&.$.=.X.X O $ 2 l l l M E | v.^ v.v.v.v.v.v.v.{ { v.v.Z ",
"{.{ m.v.v.m.v.v.v.v.v.[ n ^ M. .Z ;   X X.-.9 O.+.X   O $ s l l P E ^ { [ v.v.v.v.v.v.M.^ I v.v.G ",
"=Xl.m.l.v.v.v.v.v.m.v. .Z [ M.l.l O   X 9 -.9 5 +.X   $ 2 Z I I I I Y { m.m.m.v.v.v.v.W ^ v.v.b.[ ",
"=Xv. .n Y m.v.v.v.| | v.m.m.v.M.F & + . : y 0 . o   O $ - | M.v.v.v.m.v.M.m.v.v.v.v.m.W Y v.v.I Z ",
"#Xv.{ d Y M.m.v.v.F I M.M.v.v.l.l = * $ O % #   + @ & l b { b.v.Y [ M.v.z.' l.v.v.v.m.m.v.v.m.F g ",
"@Xv.m. .m.l.m.v.v.m.v.M.D.v.v.l.^ v.M $ = b - * v - s Z v M v.M.v.v.^ l.l. .v.v.l.Y v.v.v.l.v.v.Y ",
"XXI | m.m.m.v.v.v.v.v.v.v.v.v.v.v.M.P x  . .^ E M.^ E v.{ ^ ^ I v.v.Z [ N.M.v.v.v.l.v.v.v.Y  .M.R ",
"&Xn { B.v.v.v. .{ v.v.v.m.v.v.m.v.v. .| {  .v.v.v.v.m.v.v.M.| F  .v.v.v.Y W v.v.v.m.v.v.m.v.v.m.Y ",
"=Xv.M.F.M.M.S.^ Y m.m.v.v.v.v.l.v.v.v.{ ^ M.v.v.v.v.v.v.v.v.m.M.v.v.v.v.Y ^ v.v.v.v.v.v.v.v.v.m.R ",
"&Xl.m.v.v.M.S.m.m.Y I m.v.v.v.l.v.v.v.v.m.v.v.v.v.m.m.v.v.v.v.v.v.v.v.v.v.m.v.v.v.v.v.v.v.v. .l.} ",
"8Xc.v.F.M.v.v.m.v.D I v.v.v.v.v.v.v.v.M.M.v.v.v.v.Z I m.v.v.v.v.v.v.v.v.v.v.v.v.v.v.v.v.l.v.Y I M.",
"&Xl.v.F.M.v.v.v.m.m.l.{ v.V.S.v.v.v.v.F.D.v.v.v.l.m b  .| v.v.v.v.v.v.M.M.v.l.v.m.M.m.I g Y m.l.[ ",
"@Xv.m.v.v.v.v.v.v.v.v. .l.G.i.[ v. .m.v.v.v.v. .v.v.v.Y a ^ m.v.v.v.v.S.A.l.v.| Z { m.W n ^ v.v.Z ",
"$Xv.v.m.m.m. .n I v.v.m.l.M s ^ m.v.v.v.m.m.v.M.M.v.v. .I v.v.v.| v.v.l.E l.m. .n Z v.Y n  .v.m.Y ",
"XXv.v.l.I [ v.I ^ v.v.v.v.l.| v.[ v.v.^ m l.v.v.v.[ I v.m.m.v.v.v.v.v.v.v.v.v.v.m.m.[ = s l.v.M. .",
"@X .v. .Z F v.m.v.v.m.m.m.m. .l.v.v.v.| m [ v.l.n I  .m.v.v.v.v.v.v.v.v.v.v.m.m.^ v.l.Y ^ M.v.b.M.",
" X[ v.m.m.m.m.m.m.v.^  .v.^ g I m.m.v.m.m.v.v.| f [ M.l.| v.v.v.v.v.v.v.v.v.F Z W v.m.M.M. .Y v.R ",
".XV [  .Y G  .m.m.m.R  .m.I Z E m.v.v.v.v.v.v.m.v.m.v.v. .v.v.v.m.m.M.v.v. .n x Y m.m. .[  .{ [ c ",
".Xh k c h h c Z Z G Y R Y Y F Z Z V V V V V Z Z Z Z V V V V V V Z Y Y Y Z Z V V Z Z Z k k c V h h ",
"-Xc h h h h h d h h h h h h h h h h h h h h h h h h h h h h h h h h h h h h h h h h h d h h h h h ",
"qX] h h h h h h h h h h h h h h h h h h h h h h h h h h h h h h h h h h h h h h h h h h h h h h h "
};
