/* XPM */
static char *c[] = {
/* columns rows colors chars-per-pixel */
"50 50 244 2 ",
"   c #3F3E37",
".  c #44392F",
"X  c #4D3C26",
"o  c #56352B",
"O  c #523C2C",
"+  c #5D3D2E",
"@  c #4B2F37",
"#  c #4C3334",
"$  c #4C3D34",
"%  c #473A3B",
"&  c #543C33",
"*  c #5B3C32",
"=  c #5B3D3A",
"-  c #583535",
";  c #522931",
":  c #622D2E",
">  c #6C2429",
",  c #752A2D",
"<  c #6C3524",
"1  c #673D24",
"2  c #653B2C",
"3  c #68382D",
"4  c #783E2B",
"5  c #77382B",
"6  c #662F34",
"7  c #643235",
"8  c #6B3434",
"9  c #663E34",
"0  c #6A3A34",
"q  c #643B3B",
"w  c #6B3B39",
"e  c #69373B",
"r  c #723334",
"t  c #713D33",
"y  c #723B3A",
"u  c #7A3730",
"i  c #782F33",
"p  c #3F6424",
"a  c #794C1F",
"s  c #52761D",
"d  c #73691F",
"f  c #4D432D",
"g  c #4B482B",
"h  c #5C4D26",
"j  c #53442D",
"k  c #5C432C",
"l  c #534A2D",
"z  c #5D4B2C",
"x  c #544725",
"c  c #4C552C",
"v  c #4E5B2B",
"b  c #495526",
"n  c #54522C",
"m  c #5C552C",
"M  c #575B2C",
"N  c #5B5A2C",
"B  c #565826",
"V  c #4D4435",
"C  c #4A4638",
"Z  c #544235",
"A  c #5B4334",
"S  c #544B33",
"D  c #5B4C32",
"F  c #54433B",
"G  c #5C423B",
"H  c #544D3E",
"J  c #5B4A3B",
"K  c #455432",
"L  c #4E5734",
"P  c #5A5232",
"I  c #535C33",
"U  c #5A5738",
"Y  c #6C4422",
"T  c #63432C",
"R  c #6A462C",
"E  c #644C2C",
"W  c #6B4D2D",
"Q  c #674B26",
"!  c #744325",
"~  c #75432B",
"^  c #744B2C",
"/  c #78492A",
"(  c #6B5225",
")  c #615B25",
"_  c #63522C",
"`  c #6B522D",
"'  c #645C2C",
"]  c #685627",
"[  c #725525",
"{  c #7C5424",
"}  c #725A23",
"|  c #73532C",
" . c #7A522B",
".. c #745B2D",
"X. c #785D2B",
"o. c #634434",
"O. c #6C4432",
"+. c #644B34",
"@. c #6C4B34",
"#. c #63423B",
"$. c #6B433B",
"%. c #634A3B",
"&. c #6B4C3E",
"*. c #734334",
"=. c #734B33",
"-. c #784937",
";. c #655B32",
":. c #6D5B33",
">. c #6B543C",
",. c #6D5B39",
"<. c #655538",
"1. c #715533",
"2. c #7B5434",
"3. c #765B34",
"4. c #735B3B",
"5. c #795938",
"6. c #4C6729",
"7. c #506124",
"8. c #5B642B",
"9. c #596828",
"0. c #517125",
"q. c #596332",
"w. c #586939",
"e. c #4B7621",
"r. c #6B632D",
"t. c #686428",
"y. c #7B652D",
"u. c #7A6727",
"i. c #6D623A",
"p. c #686230",
"a. c #746435",
"s. c #75603E",
"d. c #796635",
"f. c #747536",
"g. c #533E40",
"h. c #4F4842",
"j. c #524444",
"k. c #564A43",
"l. c #5A4C44",
"z. c #554C4C",
"x. c #5B4D4B",
"c. c #5A4649",
"v. c #5A5346",
"b. c #5D534E",
"n. c #585548",
"m. c #564E51",
"M. c #5A4F51",
"N. c #575052",
"B. c #5A5153",
"V. c #5F5859",
"C. c #634B4C",
"Z. c #674444",
"A. c #724343",
"S. c #794E48",
"D. c #774846",
"F. c #655446",
"G. c #63534B",
"H. c #6B5646",
"J. c #745942",
"K. c #795846",
"L. c #694E50",
"P. c #7D4F53",
"I. c #635353",
"U. c #675955",
"Y. c #725554",
"T. c #596341",
"R. c #796446",
"E. c #716452",
"W. c #7A7842",
"Q. c #746C6D",
"!. c #7E7778",
"~. c #981321",
"^. c #863537",
"/. c #863A38",
"(. c #8B302D",
"). c #B03F2B",
"_. c #A1343A",
"`. c #B12E37",
"'. c #864D1B",
"]. c #89521C",
"[. c #925019",
"{. c #854B24",
"}. c #864628",
"|. c #815826",
" X c #865729",
".X c #925828",
"XX c #864737",
"oX c #885836",
"OX c #975939",
"+X c #924A33",
"@X c #AB5738",
"#X c #8C6B29",
"$X c #89662B",
"%X c #986629",
"&X c #836533",
"*X c #896638",
"=X c #926A35",
"-X c #8D723B",
";X c #8D7932",
":X c #9B7433",
">X c #A86A2B",
",X c #A06230",
"<X c #B36F33",
"1X c #B57528",
"2X c #C44036",
"3X c #883D45",
"4X c #933F44",
"5X c #864949",
"6X c #96504B",
"7X c #935843",
"8X c #925A55",
"9X c #914E51",
"0X c #A74648",
"qX c #B94045",
"wX c #A7595B",
"eX c #B8544E",
"rX c #836648",
"tX c #937847",
"yX c #95764C",
"uX c #A77C42",
"iX c #A76A42",
"pX c #817A7A",
"aX c #D3524C",
"sX c #5E901E",
"dX c #5C8D29",
"fX c #7BA72E",
"gX c #B88819",
"hX c #838D3F",
"jX c #978337",
"kX c #B28522",
"lX c #A28836",
"zX c #B68637",
"xX c #BA9437",
"cX c #82A12B",
"vX c #C4821A",
"bX c #D19130",
"nX c #E2A032",
"mX c #A1804C",
"MX c #A98847",
"NX c #BB9E4E",
"BX c #AA935D",
"VX c #BDA15D",
"CX c #E4AF53",
"ZX c #E6BE65",
/* pixels */
"B.B.B.B.B.B.B.B.B.B.B.B.B.B.B.B.B.B.B.B.B.B.B.B.B.B.B.B.B.B.B.B.B.B.B.B.B.B.B.B.B.B.B.B.B.B.B.B.B.B.",
"B.B.B.B.B.B.B.B.B.B.B.B.B.B.B.B.B.B.B.B.B.B.B.B.B.B.B.B.B.B.B.B.B.B.B.B.B.B.B.B.B.B.B.B.B.B.B.B.B.B.",
"B.B.B.B.B.B.B.B.B.B.B.B.B.B.B.B.B.B.B.B.B.B.B.B.B.B.B.B.B.B.B.B.B.B.B.B.B.B.B.B.B.B.B.B.B.B.B.B.B.B.",
"B.B.B.B.B.B.B.B.B.B.B.B.B.B.B.B.B.B.B.B.B.B.B.B.B.B.B.B.B.B.B.B.B.B.B.B.B.B.B.B.B.B.B.B.B.B.B.B.B.B.",
"B.B.B.B.B.B.B.B.B.B.B.B.B.B.B.B.B.B.B.B.B.B.B.B.B.B.B.B.B.B.B.B.B.B.B.B.B.B.B.B.B.B.B.B.B.B.B.B.B.B.",
"B.B.B.B.B.B.B.B.B.B.B.B.B.B.B.B.B.B.B.B.B.B.B.B.B.B.B.B.B.B.B.B.B.B.B.B.B.B.B.B.B.B.B.B.B.B.B.B.B.B.",
"B.B.B.B.B.B.B.B.B.B.B.B.B.B.B.B.B.B.B.B.B.B.B.B.B.B.B.B.B.B.B.B.B.B.B.B.B.B.B.B.B.B.B.B.B.B.B.B.B.B.",
"B.B.B.B.B.B.B.B.B.B.B.B.B.B.B.B.B.B.B.B.B.B.B.B.B.B.B.B.B.B.B.B.B.B.B.B.B.B.B.B.B.B.B.B.B.B.B.B.B.B.",
"B.B.B.B.B.B.B.B.B.B.B.B.B.B.B.B.B.B.B.B.B.B.B.M.B.B.B.B.B.B.B.B.B.B.B.B.B.B.B.B.B.B.B.B.B.B.B.B.B.B.",
"B.B.B.B.B.B.B.B.B.B.B.B.B.M.I.Y.L.C.C.G.b.B.Y.eXD.G.M.B.T.m.I.M.G.B.B.B.B.B.B.B.B.B.B.B.B.B.B.B.B.B.",
"B.B.B.B.B.B.B.B.B.B.B.B.b.=XJ.OXe c.H.l.,.,.H.2X(.k.MXtXc.A.c.v.H.G.L.C.F.b.B.B.B.B.B.B.B.B.B.B.B.B.",
"B.B.B.B.B.B.B.B.B.B.N.E.R..XU w 3X5X%.s.J C.D.<.j I >X{.,.5X6XN J ,.A.Z.<.w.v.B.B.B.B.B.B.B.B.B.B.B.",
"B.B.B.B.B.B.B.B.B.B.Y.K.o.&.r.S i > C N o.3Xi ;.S 1.+.XXT %.u g 1.5.1.xXu.K I c.B.B.B.B.B.B.B.B.B.B.",
"B.B.B.B.B.B.B.B.B.B.A.F ;.:.O._.F i.q.a.^ +.5.bX4 T O.`.4 Z d.` O.l T  .. K M O.m.B.B.B.B.B.B.B.B.B.",
"B.B.B.B.B.B.B.B.B.B.n.n.=./.& - o.^ * 5.$ ,.oX'.T <.f # mX3.I XX$./.J =Xg m ..+.m.B.B.B.B.B.B.B.B.B.",
"B.B.B.B.B.B.B.B.B.B.U.NX .@ q U r.G o.: V R.=XM J.r.z =.nX].+.k M ; -XvXx J 6X#.B.B.B.B.B.B.B.B.B.B.",
"B.B.B.B.B.B.B.B.B.B.rXbX1 -.0 6.e.BXmXk ;.lXkXA @.' E [ a o o.-X .T Z Y $.w ^.* b.B.B.B.B.B.B.B.B.B.",
"B.B.B.B.B.B.B.B.B.B.F.u @ Z l W.<.d.X.} ( r.2.2 m *.W ` M i.1.kX2 y F =.7 : = l.z.B.B.B.B.B.B.B.B.B.",
"B.B.B.B.B.B.B.B.B.B.b.Z.tX+.- uX%Xa.j v 8.$X0 t M n j  .t.m T c ` 5 t XXmX1.6 g.B.B.B.B.B.B.B.B.B.B.",
"B.B.B.B.B.B.B.B.B.B.R.s.#XE  .dXt.|.*.XXoX#.,.=.O.q.@.F *X0  .M 7.Y 2 ..&Xf   G z.B.B.B.B.B.B.B.B.B.",
"B.B.B.B.B.B.B.B.B.B.rX@.l B { 0.V 9XXX .(.O.fXsX+.9.( 8XaX! 1.-.<XE L d.|.J.yXoXl.B.B.B.B.B.B.B.B.B.",
"B.B.B.B.B.B.B.B.B.M.j.J.=.+X+ R l /.: D M 9.( ( - q.v +., [.[ ` }.( ` ^.Y MXZX~ j.B.B.B.B.B.B.B.B.B.",
"B.B.B.B.B.B.B.B.B.U.tX;.* .XK.mXm z R y.3.9.M  .=. .#X .}.$ K.0X* P ` : $ :.[ 1.5.m.B.B.B.B.B.B.B.B.",
"B.B.B.B.B.B.B.B.B.K.oX` {.w uX1Xb a. .R ^ B iX.Xe.` ~ ! ;.:X/.(.7 o.l 9XA.,.n A 5.b.B.B.B.B.B.B.B.B.",
"B.B.B.B.B.B.B.B.B.P.A.J ;...5 O L S.( o.5 n OX}.z 7X/. .y.} Y M 5.d B 3X8  Xq.dX3.k.B.B.B.B.B.B.B.B.",
"B.B.B.B.B.B.B.B.B.D.0 ,.;X) { ` S.aX< D #.@.3.W D.qX( &X1Xp.[ [ ..{ k # U =XM 6.j.m.B.B.B.B.B.B.B.B.",
"B.B.B.B.B.B.B.B.B.B.v.K.z l =.] 8 < E 5.0X`.} E r f b a.1 ! ].( 7.c hX8.& j y.%.l.B.B.B.B.B.B.B.B.B.",
"B.B.B.B.B.B.B.B.B.Y.R.wX*.Z *.k R S P Z o.< z E 3 5.-XzX+X> z m l ' cXb 2 +.|.^ z.B.B.B.B.B.B.B.B.B.",
"B.B.B.B.B.B.B.B.B.H.F.K.z P y.A ( ' *.O.6.#.y (.@.N [ gX].+ OX .h ` 4 & $X~ }.+.z.B.B.B.B.B.B.B.B.B.",
"B.B.B.B.B.B.B.B.B.c.rXlXj J.y m f.VXXX: s.<X}.=.W E ( 9.+ z m h R ^ 2 o w 2 >.2.z.B.B.B.B.B.B.B.B.B.",
"B.B.B.B.B.B.B.B.B.M.F.D % 0X`.& tXCX} S A .XY r.t.:X%X@X).h 9.E 2 h m =.S k R * z.B.B.B.B.B.B.B.B.B.",
"B.B.B.B.B.B.B.B.B.B.8X-.+.9 2 S V R B 6.&.0 MXjXs $X].~ > P 8.3 +XOX+.` :.&XZ g.M.B.B.B.B.B.B.B.B.B.",
"B.B.B.B.B.B.B.B.B.B.A.@.XXr ` i.;.O S E O.k y.Q B j ,.A o.c ] ` 7XOXk f ' [ v J c.B.B.B.B.B.B.B.B.B.",
"B.B.B.B.B.B.B.B.B.I.5XJ.^ O C d.W +.+X- @.S E c 0.n 2.q y K k ) S 5.S.6XO.%.wXZ.z.B.B.B.B.B.B.B.B.B.",
"B.B.B.B.B.B.B.B.B.M.$.&XD 6X_.#.k 5.%Xj {.F Z./.g W $.tX@.y.xXR P ' - *.k rX4X7 m.B.B.B.B.B.B.B.B.B.",
"B.B.B.B.B.B.B.B.B.B.G.y A qX~.& o.2.eX7 |.@.8 5 v 0 f n  .W %Xo J 0.& 2 9 1.+.j.M.B.B.B.B.B.B.B.B.B.",
"B.B.B.B.B.B.B.B.B.B.H.G ` # & W & 2 r # T -.! -X#X,.MXM T o.5.zXE B ..z 2.2.A z.B.B.B.B.B.B.B.B.B.B.",
"B.B.B.B.B.B.B.B.B.B.B.v.P S D : J o.9 A Z G n f ! zXbXx k E =X>XX k @.z :X%XG c.B.B.B.B.B.B.B.B.B.B.",
"B.B.B.B.B.B.B.B.B.B.B.B.w.C 3.R h.h.rX.X9 7 G F @.t T $ % tX^ . l.<.0X(.S F j.M.B.B.B.B.B.B.B.B.B.B.",
"B.B.B.B.B.B.B.B.B.B.B.B.z.z.c.k.v.,.q F k.v.5.,Xq = J C.$.k.J J S.#.q - z.z.B.B.B.B.B.B.B.B.B.B.B.B.",
"B.B.B.B.B.B.B.B.B.B.B.B.B.B.B.B.B.z.z.B.B.z.c.G j.b.,.z.z.z.B.z.c.j.N.B.B.B.B.B.B.B.B.B.B.B.B.B.B.B.",
"B.B.B.B.B.B.B.B.B.B.B.B.B.B.B.B.B.B.B.B.B.B.B.B.B.B.m.B.B.B.B.B.B.B.B.B.B.B.B.B.B.B.B.B.B.B.B.B.B.B.",
"B.B.B.B.B.B.B.B.B.B.B.B.B.B.B.B.B.B.B.B.B.B.B.B.B.B.B.B.B.B.B.B.B.B.B.B.B.B.B.B.B.B.B.B.B.B.B.B.B.B.",
"B.B.B.B.B.B.B.B.B.B.B.B.B.B.B.B.B.B.B.B.B.B.B.B.B.B.B.B.B.B.B.B.B.B.B.B.B.B.B.B.B.B.B.B.B.B.B.B.B.B.",
"B.B.B.B.B.B.B.B.B.B.B.B.B.B.B.B.B.B.B.B.B.B.B.B.B.B.B.B.B.B.B.B.B.B.B.B.B.B.B.B.B.B.B.B.B.B.B.B.B.B.",
"B.B.B.B.B.B.B.B.B.B.B.B.B.B.B.B.B.B.B.B.B.B.B.B.B.B.B.B.B.B.B.B.B.B.B.B.B.B.B.B.B.B.B.B.B.B.B.B.B.B.",
"B.B.B.B.B.B.B.B.B.B.B.B.B.B.B.B.B.B.B.B.B.B.B.B.B.B.B.B.B.B.B.B.B.B.B.B.B.B.B.B.B.B.B.B.B.B.B.B.B.B.",
"B.B.B.B.B.B.B.B.B.B.B.B.B.B.B.B.B.B.B.B.B.B.B.B.B.B.B.B.B.B.B.B.B.B.B.B.B.B.B.B.B.B.B.B.B.M.B.B.B.B.",
"B.B.B.B.B.B.B.B.B.B.B.B.B.B.B.B.B.B.B.B.B.B.B.B.B.B.B.B.B.B.B.B.B.B.B.B.B.B.B.B.B.B.B.M.Q.!.m.m.m.z.",
"B.B.B.B.B.B.B.B.B.B.B.B.B.B.B.B.B.B.B.B.B.B.B.B.B.B.B.B.B.B.B.B.B.B.B.B.B.B.B.B.B.B.B.M.Q.pXV.U.U.z."
};
