/* XPM */
static char *p[] = {
/* columns rows colors chars-per-pixel */
"50 50 164 2 ",
"   c #1F1120",
".  c #271928",
"X  c #2A1C2B",
"o  c #361F32",
"O  c #3C2237",
"+  c #372835",
"@  c #3D2438",
"#  c #3F2C3C",
"$  c #3C303D",
"%  c #47333F",
"&  c #3F3340",
"*  c #423743",
"=  c #453945",
"-  c #493A48",
";  c #523048",
":  c #554452",
">  c #5C525C",
",  c #645A64",
"<  c #795D65",
"1  c #6C636D",
"2  c #7B6274",
"3  c #716871",
"4  c #7A727A",
"5  c #857D84",
"6  c #8B848A",
"7  c #958E94",
"8  c #A6939F",
"9  c #A7989D",
"0  c #A29CA1",
"q  c #AB9FA7",
"w  c #ABA5AA",
"e  c #B0ABB0",
"r  c #B9ACB2",
"t  c #B5B1B4",
"y  c #BAB3B7",
"u  c #BBB6B9",
"i  c #BCBBBC",
"p  c #C2868B",
"a  c #C6B0B3",
"s  c #C1BFBD",
"d  c #D3B2B6",
"f  c #D7B6B9",
"g  c #D5BABD",
"h  c #D9BBBE",
"j  c #C2BFC2",
"k  c #D6BDC0",
"l  c #DABEC0",
"z  c #C1C1C0",
"x  c #C9C5C7",
"c  c #CAC6C8",
"v  c #CDCBCC",
"b  c #DCC2C4",
"n  c #D0CDCE",
"m  c #DFCCCD",
"M  c #D4D1CF",
"N  c #DDCDD0",
"B  c #D5D4D5",
"V  c #DAD7D8",
"C  c #DEDCDC",
"Z  c #E3C7C8",
"A  c #E4CACB",
"S  c #FDCBCE",
"D  c #E3CFD0",
"F  c #FDCED1",
"G  c #E4D2D3",
"H  c #EAD3D4",
"J  c #E7D7D8",
"K  c #E2DFDE",
"L  c #ECDBDB",
"P  c #FCD5D7",
"I  c #F1DBDB",
"U  c #FCDBDC",
"Y  c #FDDFE0",
"T  c #EDE3E3",
"R  c #E9E8E7",
"E  c #ECEAE9",
"W  c #F3E6E5",
"Q  c #FCE3E4",
"!  c #F5E8E7",
"~  c #F6EBEA",
"^  c #F9EDEC",
"/  c #F5F1EF",
"(  c #F9F1EF",
")  c #F6F3F1",
"_  c #FBF5F3",
"`  c #FAF5F2",
"'  c #F8F6F3",
"]  c #F9F6F3",
"[  c #FBF6F3",
"{  c #F8F5F3",
"}  c #F8F5F4",
"|  c #FBF5F4",
" . c #FAF5F5",
".. c #F8F6F4",
"X. c #F9F6F4",
"o. c #F9F6F5",
"O. c #F9F7F5",
"+. c #FAF6F4",
"@. c #FBF6F4",
"#. c #FBF7F4",
"$. c #FBF6F5",
"%. c #FAF7F5",
"&. c #F9F7F6",
"*. c #FBF6F6",
"=. c #FAF7F6",
"-. c #FBF7F6",
";. c #FCF5F4",
":. c #FCF6F4",
">. c #FCF7F4",
",. c #FCF7F5",
"<. c #FCF6F6",
"1. c #FCF7F6",
"2. c #FDF7F6",
"3. c #FAF4F2",
"4. c #FAF8F5",
"5. c #FAF8F6",
"6. c #FBF8F6",
"7. c #FAF8F7",
"8. c #FAF9F7",
"9. c #FBF9F7",
"0. c #FCF8F4",
"q. c #FCF8F5",
"w. c #FCF9F5",
"e. c #FCF8F6",
"r. c #FCF9F6",
"t. c #FCF8F7",
"y. c #FCF9F7",
"u. c #FDF9F7",
"i. c #FCFAF7",
"p. c #FDFAF7",
"a. c #FCF9F5",
"s. c #FBF9F8",
"d. c #FBFAF8",
"f. c #FBFAF9",
"g. c #FCF8F8",
"h. c #FCF9F8",
"j. c #FCFAF8",
"k. c #FDFAF8",
"l. c #FCFAF9",
"z. c #FDFAF9",
"x. c #FCFBF9",
"c. c #FDFBF9",
"v. c #FEFBF9",
"b. c #FDFAFA",
"n. c #FCFBFA",
"m. c #FDFBFA",
"M. c #FDFBFB",
"N. c #FDFCFA",
"B. c #FDFCFB",
"V. c #FDFDFB",
"C. c #FEFCFA",
"Z. c #FEFCFB",
"A. c #FEFDFB",
"S. c #FFFDFB",
"D. c #FEFDFC",
"F. c #FEFEFC",
"G. c #FFFEFC",
"H. c #FEFEFD",
"J. c #FFFEFD",
"K. c #FFFFFD",
"L. c #FFFEFE",
"P. c #FFFFFE",
"I. c #FFFFFF",
"U. c #FEFDFD",
/* pixels */
"I.I.I.I.I.I.I.I.I.I.I.I.I.I.I.I.I.I.I.I.I.I.I.I.I.I.I.I.I.I.I.I.I.I.I.I.I.I.I.I.I.I.I.I.I.I.I.I.I.I.",
"I.I.I.I.I.w.w.w.w.w.w.w.w.w.w.w.w.w.w.w.w.w.w.w.w.w.w.w.w.w.w.w.w.w.w.w.w.w.w.w.w.w.w.w.w.I.I.I.I.I.",
"I.I.I.w.w.w.w.w.w.w.w.w.w.w.w.w.w.w.w.w.w.w.w.w.w.w.w.w.w.w.w.w.w.w.w.w.w.w.w.w.w.w.w.w.w.w.w.I.I.I.",
"I.I.w.w.w.w.w.w.w.w.w.w.w.w.w.w.w.w.w.w.w.w.w.w.w.w.w.w.w.w.w.w.w.w.w.w.w.w.w.w.w.w.w.w.w.w.w.w.I.I.",
"I.I.w.w.w.w.w.w.w.w.w.w.w.w.w.w.w.w.w.w.w.w.w.w.w.w.w.w.w.w.w.w.w.w.w.w.w.w.w.w.w.w.w.w.w.w.w.w.I.I.",
"I.I.w.w.w.w.w.w.w.w.w.w.w.w.w.w.w.w.w.w.w.w.w.w.w.w.w.w.w.w.w.w.w.w.w.w.w.w.w.w.w.w.w.w.w.w.w.w.w.I.",
"I.w.w.w.w.w.w.w.w.w.w.w.w.w.w.w.w.w.w.w.w.w.w.w.w.w.w.w.w.w.w.w.w.w.w.w.w.w.w.w.w.w.w.w.w.w.w.w.w.I.",
"I.w.w.w.w.w.w.w.w.w.w.w.w.w.w.w.w.w.w.w.w.w.w.w.w.w.w.w.w.w.w.w.w.w.w.w.w.w.w.w.w.w.w.w.w.w.w.w.w.I.",
"I.w.w.w.w.w.w.w.w.w.w.w.w.w.w.w.w.w.w.w.w.w.[ [ [ w.[ [ w.w.w.w.w.w.w.w.w.w.w.w.w.w.w.w.w.w.w.w.w.I.",
"I.w.w.w.w.w.w.w.w.w.w.w.w.w.w.w.w.w.w.[ ( ~ ! ~ ~ ! ! ~ ~ [ w.w.w.w.w.w.w.w.w.w.w.w.w.w.w.w.w.w.w.I.",
"I.I.w.w.w.w.w.w.w.w.w.w.w.w.w.w.w.[ ^ ! ~ [ I.I.I.[ I.I.[ ~ ! ( w.w.w.w.w.w.w.w.w.w.w.w.w.w.w.w.w.I.",
"I.I.w.w.w.w.w.w.w.w.w.w.w.w.w.w.( ! ~ I.w.I.I.I.) w.I.[ I.I.[ ~ ~ [ w.w.w.w.w.w.w.w.w.w.w.w.w.w.w.I.",
"I.I.w.w.w.w.w.w.w.w.w.w.w.w.w.( ~ [ I.I.w.I.I.I.I.I.[ ) w./ I.I.[ ! [ w.w.w.w.w.w.w.w.w.w.w.w.w.w.I.",
"I.I.w.w.w.w.w.w.w.w.w.w.w.w.( ~ w.[ [ [ I.I.w.w.I.I.I.I.I.I.I.I.[ [ ! [ w.w.w.w.w.w.w.w.w.w.w.w.w.I.",
"I.w.w.w.w.w.w.w.w.w.w.w.w.[ ! I.I.I.[ [ [ w.w.[ I.I.I.I.w.[ I.[ w.I.[ ! [ w.w.w.w.w.w.w.w.w.w.w.w.I.",
"I.w.w.w.w.w.w.w.w.w.w.w.w.~ [ I.) [ I.I.I.I.I.I.I.[ I.I.w.) I.[ w.I.I.^ ~ w.w.w.w.w.w.w.w.w.w.w.w.I.",
"I.I.w.w.w.w.w.w.w.w.w.w.^ ~ I.I.I.I.) w.I.I.I.I.w.) I.I.I.I.I.I.I.I.I.[ ! [ w.w.w.w.w.w.w.w.w.w.w.I.",
"I.I.w.w.w.w.w.w.w.w.w.[ ! I.[ w.) I.I.I.I.) w.I.I.I.I.I.I.I.I.I.I.w.w.I.[ ~ w.w.w.w.w.w.w.w.w.w.w.I.",
"I.w.w.w.w.w.w.w.w.w.w.( ~ I.w.I.w.I.I.I.I.) I.I.I.I.I.I.I.I.I.I.I.w.w.[ I.! [ w.w.w.w.w.w.w.w.w.w.I.",
"I.w.w.w.w.w.w.w.w.w.w.~ ~ w.I.I.I.V u E I.I.I.I.I.I.I.I.~ x v ) w./ w.[ I.^ ~ w.w.w.w.w.w.w.w.w.w.I.",
"I.w.w.w.w.w.w.w.w.w.w.! [ [ I.I.v j > 1 ) I.I.I.I.I.I.I.6 e w 7 w.w.I.I.I.w.~ w.w.w.w.w.w.w.w.w.w.I.",
"I.w.w.w.w.w.w.w.w.w.[ ! ) w.I.) 4 B , X c I.I.I.I.I.I.R = 1 3 $ C I.I.I.[ I.! [ w.w.w.w.w.w.w.w.w.I.",
"I.I.w.w.w.w.w.w.w.w.^ ~ [ I.I.K $ * X . i I.) I.I.I.) R =   . # n I.I.w.[ I.~ ( w.w.w.w.w.w.w.w.w.I.",
"I.I.w.w.w.w.w.w.w.w.~ [ I.I.I.R : O o - C I.5 w ) 0 7 I.5 O ; 2 E I.I.w.I.w.[ ~ w.w.w.w.w.w.w.w.w.I.",
"I.I.w.w.w.w.w.w.w.w.~ ^ I.I.[ ( r 2 2 y I.I.0 + < % t I.E q 8 m P P ( w./ [ I.~ w.w.w.w.w.w.w.w.w.I.",
"I.I.w.w.w.w.w.w.w.w.! [ [ [ P F P ~ ) I.I.I./ 8 p a ) I.I.I.I.P S S P [ w.w.[ ! w.w.w.w.w.w.w.w.w.I.",
"I.w.w.w.w.w.w.w.w.w.! [ / ^ S S S [ I.I.I.I.I.I.I.I.I.I.I.I.w.P S S P I.I.w.[ ! w.w.w.w.w.w.w.w.w.I.",
"I.w.w.w.w.w.w.w.w.w.! [ w.[ P P Q w.I.I.I.I.I.I.I.I.I.I.w.[ I.[ ^ ^ [ w.I.[ [ ! w.w.w.w.w.w.w.w.w.I.",
"I.I.w.w.w.w.w.w.w.w.~ [ [ I.I.w.I.I.I.I.I.I.I.I.I.I.I.I.I.[ I.I.I.I.I.) ) / I.! w.w.w.w.w.w.w.w.w.I.",
"I.I.w.w.w.w.w.w.w.w.~ [ / ) I.w.w.I.I.I.I.I.[ [ I.I.I.I.I.I.I.I.[ [ I.w.w.[ [ ! w.w.w.w.w.w.w.w.w.I.",
"I.w.w.w.w.w.w.w.w.w.! ~ [ [ I.w.w.I.I.I.[ I.w.I.I.I.w.) I.[ I.I.[ [ [ [ w.[ [ ! w.w.w.w.w.w.w.w.w.I.",
"I.w.w.w.w.w.w.w.w.w.~ ! [ [ w.[ I.I.I.I.) I.I.I.w.) w.w.I.I.w.w.I.I.I.) [ ( ~ ~ w.w.w.w.w.w.w.w.w.I.",
"I.w.w.w.w.w.w.w.w.w.[ ! [ [ ) [ I.I.) w.I.I.[ I.I.I.I.I.I.I.) [ w.) w.[ ( ( ! [ w.w.w.w.w.w.w.w.w.I.",
"I.w.w.w.w.w.w.w.w.w.[ ! ~ ( [ w.[ I.[ w.I.w.) I.I.I.[ I.I.[ w.I.I.) [ ~ R ~ L [ w.w.w.w.w.w.w.w.w.I.",
"I.I.w.w.w.w.w.w.w.w.w.! ! [ ~ [ [ [ [ w.) w.I.[ I.w./ w.I.) I.I.) [ ( ~ ~ ! ! w.w.w.w.w.w.w.w.w.w.I.",
"I.I.w.w.w.w.w.w.w.w.w.[ L ~ R ~ [ [ [ [ ) [ I.w.w.I.[ [ [ [ I.I.[ ( ! ! [ L [ w.w.w.w.w.w.w.w.w.w.I.",
"I.I.w.w.w.w.w.w.w.w.w.w.! J ! ~ ~ ~ ( [ [ [ [ [ ) [ [ [ ~ ~ w.[ ( ~ R ~ ! ! w.w.w.w.w.w.w.w.w.w.w.I.",
"I.I.w.w.w.w.w.w.w.w.w.w.w.L L [ ~ ~ ~ ~ [ [ / [ ~ / [ [ ~ ~ ~ ~ ~ ~ ~ ~ L [ w.w.w.w.w.w.w.w.w.w.w.I.",
"I.w.w.w.w.w.w.w.w.w.w.w.w.[ L R ~ ~ ~ R ~ ~ ! ( [ / ~ ~ R ~ ~ ~ ~ [ L L [ w.w.w.w.w.w.w.w.w.w.w.w.I.",
"I.w.w.w.w.w.w.w.w.w.w.w.[ [ ^ J Z R ~ ~ ~ ^ ~ ~ [ ~ ! ! ~ ~ ~ ~ ~ J J ( [ [ w.w.w.w.w.w.w.w.w.w.w.I.",
"I.I.w.w.w.w.w.w.w.w.w.( ! I J Z h d g g J ! D J L J R J R m b g g f Z J I ! ( w.w.w.w.w.w.w.w.w.w.I.",
"I.I.w.w.w.w.w.w.w.w.w.[ ( ! ! L J J Z Z b l l l l h b h l b b Z J J L ! ! ( [ w.w.w.w.w.w.w.w.w.w.I.",
"I.w.w.w.w.w.w.w.w.w.w.w.w.w.w.w.w.[ [ [ [ [ [ [ [ [ ( [ [ [ [ [ [ w.w.w.w.w.w.w.w.w.w.w.w.w.w.w.w.I.",
"I.w.w.w.w.w.w.w.w.w.w.w.w.w.w.w.w.w.w.w.w.w.w.w.w.w.w.w.w.w.w.w.w.w.w.w.w.w.w.w.w.w.w.w.w.w.w.w.w.I.",
"I.w.w.w.w.w.w.w.w.w.w.w.w.w.w.w.w.w.w.w.w.w.w.w.w.w.w.w.w.w.w.w.w.w.w.w.w.w.w.w.w.w.w.w.w.w.w.w.w.I.",
"I.I.w.w.w.w.w.w.w.w.w.w.w.w.w.w.w.w.w.w.w.w.w.w.w.w.w.w.w.w.w.w.w.w.w.w.w.w.w.w.w.w.w.w.w.w.w.w.I.I.",
"I.I.w.w.w.w.w.w.w.w.w.w.w.w.w.w.w.w.w.w.w.w.w.w.w.w.w.w.w.w.w.w.w.w.w.w.w.w.w.w.w.w.w.w.w.w.w.w.I.I.",
"I.I.I.w.w.w.w.w.w.w.w.w.w.w.w.w.w.w.w.w.w.w.w.w.w.w.w.w.w.w.w.w.w.w.w.w.w.w.w.w.w.w.w.w.[ [ [ w.I.I.",
"I.I.I.I.w.w.w.w.w.w.w.w.w.w.w.w.w.w.w.w.w.w.w.w.w.w.w.w.w.w.w.w.w.w.w.w.w.w.w.w.w.w.w.[ K M s z z C ",
"I.I.I.I.I.I.I.I.I.I.I.I.I.I.I.I.I.I.I.I.I.I.I.I.I.I.I.I.I.I.I.I.I.I.I.I.I.I.I.I.I.I.I.I.C v i i i B "
};
