/* XPM */
static char *_[] = {
/* columns rows colors chars-per-pixel */
"50 50 237 2 ",
"   c #111D0B",
".  c #13270B",
"X  c #19380D",
"o  c #1E251A",
"O  c #1D3811",
"+  c #22251E",
"@  c #243917",
"#  c #363929",
"$  c #312E32",
"%  c #353235",
"&  c #2D2C2C",
"*  c #1D400F",
"=  c #1E4110",
"-  c #254B14",
";  c #2A4D16",
":  c #2A4618",
">  c #324E1E",
",  c #2B5417",
"<  c #2E5A18",
"1  c #2D5617",
"2  c #325C1A",
"3  c #33571B",
"4  c #35631B",
"5  c #3B6C1E",
"6  c #38671D",
"7  c #3B711F",
"8  c #37472A",
"9  c #3A5A26",
"0  c #3C5A30",
"q  c #3E6D22",
"w  c #3B6225",
"e  c #3E7320",
"r  c #46563A",
"t  c #494F33",
"y  c #426B24",
"u  c #48672A",
"i  c #437423",
"p  c #447B23",
"a  c #4A7D25",
"s  c #4A7628",
"d  c #527728",
"f  c #597937",
"g  c #4E7A34",
"h  c #62763B",
"j  c #555453",
"k  c #5D5D54",
"l  c #595758",
"z  c #4C4B47",
"x  c #605F50",
"c  c #596549",
"v  c #5A7B46",
"b  c #676B48",
"n  c #73784D",
"m  c #636354",
"M  c #6A6A57",
"N  c #737851",
"B  c #697852",
"V  c #625F61",
"C  c #6D6B6C",
"Z  c #676565",
"A  c #737469",
"S  c #726F72",
"D  c #757274",
"F  c #7D797D",
"G  c #797579",
"H  c #716E6E",
"J  c #807C7F",
"K  c #468225",
"L  c #4C8326",
"P  c #4F8628",
"I  c #4D8B29",
"U  c #4B8927",
"Y  c #518628",
"T  c #528B2A",
"R  c #58872A",
"E  c #54942B",
"W  c #5A942D",
"Q  c #57992D",
"!  c #5B9B2E",
"~  c #588935",
"^  c #5E9F30",
"/  c #5B9333",
"(  c #4F8730",
")  c #608E2D",
"_  c #619C2F",
"`  c #65942F",
"'  c #698738",
"]  c #639D31",
"[  c #6C9B32",
"{  c #63963A",
"}  c #769D36",
"|  c #70942F",
" . c #5EA230",
".. c #5AA02F",
"X. c #63A532",
"o. c #6BA433",
"O. c #66AB34",
"+. c #6BAC35",
"@. c #65A339",
"#. c #6DA73D",
"$. c #73AC36",
"%. c #7BAE3A",
"&. c #75A736",
"*. c #6DB336",
"=. c #6FB639",
"-. c #71B337",
";. c #73B439",
":. c #7CB439",
">. c #74BB39",
",. c #7BBD3B",
"<. c #78B137",
"1. c #77C13B",
"2. c #7BC33C",
"3. c #7EC83E",
"4. c #6A8746",
"5. c #6B9646",
"6. c #719454",
"7. c #72874F",
"8. c #78A749",
"9. c #7DA555",
"0. c #7EB152",
"q. c #78B042",
"w. c #778767",
"e. c #7D9466",
"r. c #7C8572",
"t. c #7FC444",
"y. c #82B43A",
"u. c #82BB3B",
"i. c #8AB93D",
"p. c #95BF3E",
"a. c #87AB3A",
"s. c #889E3B",
"d. c #83C43E",
"f. c #8BC33E",
"g. c #82CB3E",
"h. c #89CA3F",
"j. c #93C13F",
"k. c #88B945",
"l. c #89A95C",
"z. c #99BA5A",
"x. c #8DB54E",
"c. c #A6BF5C",
"v. c #899C6B",
"b. c #8C8B7D",
"n. c #858B79",
"m. c #908F7C",
"M. c #8E9376",
"N. c #8E9179",
"B. c #869572",
"V. c #929476",
"C. c #9B9D75",
"Z. c #92937A",
"A. c #9A9B78",
"S. c #959975",
"D. c #91986F",
"F. c #88A567",
"G. c #99A76B",
"H. c #9CA172",
"J. c #9DB561",
"K. c #A2AA6A",
"L. c #A8AD6E",
"P. c #A4B265",
"I. c #ACB46B",
"U. c #A8B966",
"Y. c #B3BE65",
"T. c #B4BB6A",
"R. c #B2B76C",
"E. c #A6A972",
"W. c #ACB170",
"Q. c #8EC540",
"!. c #84CF40",
"~. c #8BCD41",
"^. c #8AC549",
"/. c #92C441",
"(. c #94CB42",
"). c #99CC43",
"_. c #97C948",
"`. c #86D140",
"'. c #8BD342",
"]. c #8DD943",
"[. c #93D444",
"{. c #9BD245",
"}. c #93DC44",
"|. c #9CDC47",
" X c #98D54B",
".X c #97C755",
"XX c #8ECB50",
"oX c #A4CA46",
"OX c #A3D546",
"+X c #A4DA47",
"@X c #A3D34A",
"#X c #A4DB49",
"$X c #ADDD49",
"%X c #ABD349",
"&X c #A9C75A",
"*X c #B4C95C",
"=X c #AAD353",
"-X c #B7D956",
";X c #B7DD4D",
":X c #9BE247",
">X c #99E347",
",X c #A4E349",
"<X c #ACE44A",
"1X c #ABE94B",
"2X c #B2E34C",
"3X c #B4EA4D",
"4X c #BBED4F",
"5X c #BBE24E",
"6X c #BAF04F",
"7X c #BBE552",
"8X c #B9E850",
"9X c #BEF050",
"0X c #B4C363",
"qX c #BAC862",
"wX c #BED560",
"eX c #C5DA5B",
"rX c #C5D85C",
"tX c #CCD65F",
"yX c #C3E555",
"uX c #C3EC52",
"iX c #CBE957",
"pX c #D3EA5A",
"aX c #CCF155",
"sX c #C4F152",
"dX c #D5F357",
"fX c #C0E24F",
"gX c #C4CB63",
"hX c #E4F45B",
"jX c #827E81",
"kX c #868383",
"lX c #878482",
"zX c #868284",
"xX c #858184",
"cX c #868284",
"vX c #898681",
"bX c #888485",
"nX c #8B8981",
/* pixels */
"zXzXzXzXzXzXzXzXzXzXzXzXzXzXzXzXzXzXb.Z.zXzXvXzXvXb.zXzXvXV.zXzXzXvXzXzXzXvXzXzXzXzXb.zXzXzXzXzXzXzX",
"zXzXzXzXzXb.Z.zXzXb.b.zXb.m.zXb.vXzXC.E.jXvXZ.zXb.C.zXzXvXL.vXzXzXC.vXzXzXC.vXzXzXzXC.vXvXnXzXzXzXzX",
"zXzXzXvXC.C.E.zXjXC.C.jXZ.E.zXE.C.M.Y.0Xn.b.L.zXb.L.zXV.V.gXV.b.zXR.Z.b.zXW.C.zXzXvXI.vXb.C.zXzXzXzX",
"zXzXzXzXI.0XT.b.M.R.I.n.Z.T.zXT.T.G.yXtXV.S.gXV.Z.gXb.K.P.yXY.G.V.gXI.H.zX0X*Xb.N.b.gXm.C.E.zXzXzXzX",
"zXzXvXzXJ.*XrXG.Y.rXrXG.G.gXD.z.rXP.iXyXG.Y.rXK.K.rXY.I.J.iXyXz.Y.yXtXY.M.wX=XG.K.P.rXG.I.I.zXzXzXzX",
"zXzXb.Z.l.-XpXc.tXyXdX-X&XyX&X.XaXY.yXyXP.pX7XJ.-XyXpXT.z.uXiX&X&XaXhXpXK.-X^.Y.*XrXaX*X&XP.zXZ.zXzX",
"zXzXnXT.l.7XaX&XpX4XaXuX7XiX@X#X4X&X7X7XJ.7X2Xz.-XiX7X=X&XaX%X-XOX4XdXdXz.&X^.rXrX7XaX=X.Xz.K.Z.zXzX",
"zXzXzXY.x.-XuX&XuX<X<X|.7XuX{.'.1X|.4X2Xz.[.uXz.-XuX7X{.=X9Xf.[.|.4X5X2X>.).).iXuX2XuX-X^.=X0XvXzXzX",
"zXzXzXG.,.;X4X).:X).'.3.2XsX).3.,X[.2XOXf.2.dXz.OX4X#Xg.|.1X).'.,.[.~.+X! j.f.4X<X{.9X=Xk.,XG.zXzXzX",
"zXzXzXB.>.$X4X[.g.y.>.*.OX4X).2.}.~.OXOXf.>.5XOX).3XOX3.'.:X2Xf.!.).$.%XW R %.2X#XQ.3XOX,.2.B.nXvXzX",
"vXzXzXn.#.OX3X[.Q.oXX.X.).1X).2.y.h.).oX).;.).f.f.,XOXg.g.[.$X$.%X).$.;Xa.q y.2X[.Q.,XOX2.@.G.T.vXzX",
"C.K.b.zX5.oX,X~./.fXo. ./.+X+X>.) +.k.5X2X>.*.*.f.|.2X,.>.f.OXx.oX:.{.aXoX) oX$X~.Q.{.$X>.^ 7XW.zXzX",
"zXI.&XB.5.p.{.f.%XaX%.! OX).OXX.i ^ /.aX5Xk.u.X.).).OX! O.+.$XyXa.W #XaX#X%.uXoX2./.).%XO.O.1XS.zXzX",
"zXnX-Xk.6.x.$.E k.sX:.E f.u.<.T } ] k.uXoX| $XO.y.:.+.K ..X.$X$XW ] OXuX).i.aXOX2.$.:.u./ +.|.b.zXzX",
"zXzXP.[.5.5.u.! y.6Xg.E ^ $.:.e s.u.%.4XoXy |.*.! $.o.6 E W +Xf.} >.).9X).).aXj.*.! X.,.~ ;.XXzXzXzX",
"zXzXM.[.X.@.).! :.3X}.Q ! f.:.< | {.%.4X).d ,X*.E f.&.2 E +.+XX.a.g.).3X).~.3X<X*.E ;.u.v #.l.zXzXzX",
"zXzXn.XX*.*.f.E y.,X>XE X.~.] , _ '.$.2Xp.[ |.>.X.[.] 0 Q '.[.W o.'./.<X).,.+X,X>.! f.>.B { e.zXzXzX",
"zXzXM.XX>.*.'.E y.f.'.! ;.:XW : ,.2.[ OX:.W +.2.>.:X~ c +.'.1.] o.g.j.{.).$.{.,X,.! >X>.B / r.zXzXzX",
"zXzXb..X2.>.'.E W ] >.+.;.,XT 2 ;.>.d i.` i Y 2.>.:Xg 5.>.'.1.! >.>.&.u.&.W :.$.2. .:X$.B 5.n.zXzXzX",
"Z.zXzXF.2.1.'.T e Y >.>.>.:XT Y X.O.q +.a s a 2.1.}.a $.*.'.!.).X.X.T X.a P ! a >.+.>X8.A 9.zXzXzXb.",
"0XU.vXB.>.2.'.5.~ &.$.O.1.>XT [ _  .L {.%.[ i +.1.}.L :.! }.$Xu.O.! :.i.[ ] :.` +.*.>X8.v.l.zXzXH.qX",
"N.=Xz.n.@.2.'.6.k.+XT U >.}.L y.Y E P '.{.:.7 ! >.].T u.L :Xf.T O.E f.f.a X./.W I O.}.5.z.F.jXv.=XG.",
"zXv.!.9.~ =.'.6. X2.L K >.'.T h.5 p ! !.+.f.p K *.'.+.g.E ].;.e E E 2.,.e ).,XL p  .].@. Xv.r.!.x.zX",
"zXzX0.;.g +.g.@.3.2.W L >.`.+.h.< 6 X.~.X.W X.p =.'.2.,.O.].*.4 K  .2.,.a |.].L e  .].+.[.e.5.>.n.zX",
"zXb.l.+.p O.2.X.O.>.X.p 1.!.2.,.; < O.`._ 9 >.p >.!.3.X.O.`.+.< 5 O.3.,.W !.`.T q X.].>.'.7.( 8.N.zX",
"zXzXv.@.7 O.,.X.L ! ] g 2.g.>.+., 6 ).,Xo.8 @.p >.g.>.! ! ,.u.i 2 O.3.2.^ *.!.T w O.'.*.,.v s r.zXzX",
"zXzXzX5.a X.>.! 2 E T w ,.2.O.! L ).|.|.W : ! L >.2.X.T T f.2X).W  .2.f.! Q 2.a 5 O.'.X.X.y v N.H.Z.",
"zXzXzXe.a.+.>.I : &.&.; ;.2.! E >.`.*.>.i @ ! ] ,.2.E p X.,X%.f !.X.+.g.T a +.i 4 X.`.! P 5 0.-XG.vX",
"zXzXzXv.5X[.>.e O &.2X` ] 2.I E 1.X.L >.i 2 ).o.+.1.p p 3.`.a r {  .W `.p 5 ).y.< W `.Q e E }.z.zXzX",
"zXzXzXF.1X,X>.< d +X}.[.o.>.L ! 1.2 e `.a L 1X:.! >.e E g.*.L 9 ~ ! L !.5 | ).).[ { g.I 5 *.^.n.zXzX",
"zXzXzXM.[.:X>.4 f.2.2.`.g.>.I O.*.O p g.P ;.[.~.$.>.e X.1.+.W 4 I ! T 2.W OX>.X.[.q.3.I L 2.F.zXzXzX",
"zXzXzXn.k.].>.L 2.! O.*.3.>.! *.2.p L g.W g.! 2.g.>.I *.1.;.! < T X.! 2.2.,.*.T >.2.1.E ..t.B.zXzXzX",
"zXzXzXzX8.3.>.X.+.T ! I >.2.O.O.T E ! g.W 2.i X.2.1. .O.>.,.W 4 O. .X.3.g.X.+.W O.2.2.X.O.0.zXzXzXzX",
"zXzXzXzX6.=.2.*.! L E 6 *.3.+.U 2 5 O.g.W *.2 L =.2.O.I E ,.W e K K *.2.1.! *.W p *.g.+. .e.zXzXzXzX",
"zXzXzXzXw.O.3.*.L L T , O.!.O.7 ; ; X.g.^ X.2 4 O.g.O.5 5 >.W 6 , i *.>.*.L *.L , ! `.*.T A vXzXzXzX",
"zXZ.F.b.r.X.3.O.a ] T ; ! !.O.4 2 X X.#X)._ , , ! !.O.< , ;.o.a - e >.>.! i ,.W * I '.*.i C vXzXb.vX",
"zXb.&X.Xw.@.2.I 1 W ;.; E 3. ., 5 > o.;.$.~.W 1 T 3...; : f.<Xa.y i >.>.p 4 >.;.2 i `.O.9 Z F.&X0XS.",
"zXzXB.'.{ X.>.6 = Y ;., L 1.E ; 4 5 T >.i Y 3.q L 1.E ; T ].;.; X 6 *.>.< 2 +.L e 5 g. .; v  X.Xb.zX",
"zXzXzX9.E ! *.< X L O.p i >.I * 2 4 e g.L 4  .L L >.I i >.!.] X X 2 X.>.; , o.i , 5 2.Q 1 X.XXn.zXzX",
"zXzXzXr.P T *.< X W i i L >.K X 2 6 4 g.T , 2 L T >.U E O.+./ O X 2 ! *.- a ;.L , 5 2.E e >.v.zXzXzX",
"zXzXzXzXv U O., ; ~ 6 0 T >.p X 2 y 4 ;.L . @ e T >.I I 5 W s . . , T +.1 W T 5 i p 2.E K 5.zXzXzXzX",
"zXzXvXF c T O.: O y 2 o Y 2.i . O . e *.p   X 1 T >.L 5 - _ s   . : L O.6 2 W > : a 2.E p c Z J zXzX",
"zXJ G l 8 E +.: o 9 > + d 2.i + @ o w 2.s + + @ L 2.p > @ ] g o o : P +.w @ W : + y 2.! 5 8 j G jXzX",
"zXC j c r T >.# t t % # d g.s # & & u 2.u $ & # s 2.y & # ] g % $ # T *.u t W t % r g.E > r m M Z J ",
"zXS j j b ' 5.c k m j b 4.%.' b z z h :.f j z t u ,.s z c 4.4.k j z T ,.h b b n m n q.' b m k M A jX",
"zXG C Z M M M m k l l m m N N k l k n 7.k j l k c 7.b m k m m k m k c 7.N k k m M M n m M m V Z G jX",
"zXzXzXzXjXjXJ F F F G G G G G G G S S H C C C C C H G G G G G G G G G S G G G G G G F F F jXzXzXzXzX",
"zXzXzXzXzXvXvXvXvXvXvXvXvXvXvXzXvXvXvXvXvXvXzXvXvXzXvXvXvXvXvXvXvXvXvXvXzXvXvXzXzXvXzXzXzXzXzXzXzXzX",
"zXzXzXzXzXzXzXzXzXzXzXzXzXzXzXzXzXzXzXzXzXzXzXzXzXzXzXzXzXzXzXzXzXzXzXzXzXzXzXzXzXzXzXzXzXzXzXzXzXzX",
"zXzXzXzXzXzXzXzXzXzXzXzXzXzXzXzXzXzXzXzXzXzXzXzXzXzXzXzXzXzXzXzXzXzXzXzXzXzXzXzXzXzXzXzXzXzXzXzXzXzX"
};
