/* XPM */
static char *c[] = {
/* columns rows colors chars-per-pixel */
"50 50 232 2 ",
"   c #252627",
".  c #282727",
"X  c #262728",
"o  c #282728",
"O  c #272828",
"+  c #DA955F",
"@  c #352B27",
"#  c #332D29",
"$  c #3B2E29",
"%  c #2F3128",
"&  c #333329",
"*  c #3B342A",
"=  c #36392A",
"-  c #3A3B2B",
";  c #422E29",
":  c #4A2E29",
">  c #433429",
",  c #4C332A",
"<  c #443B2B",
"1  c #4B3D2B",
"2  c #53332A",
"3  c #5B352A",
"4  c #533D2C",
"5  c #5C3C2C",
"6  c #553E32",
"7  c #63322A",
"8  c #663A29",
"9  c #75362C",
"0  c #6F3C30",
"q  c #3C432A",
"w  c #3F4929",
"e  c #42452C",
"r  c #4C422D",
"t  c #434B2C",
"y  c #4B4E2D",
"u  c #5C442C",
"i  c #56492E",
"p  c #5A4A2E",
"a  c #45502B",
"s  c #4B542C",
"d  c #4C5B2C",
"f  c #57562F",
"g  c #525D2D",
"h  c #4B4E30",
"j  c #574431",
"k  c #5A4C32",
"l  c #5B5634",
"z  c #545C33",
"x  c #63432B",
"c  c #6B432B",
"v  c #644B2C",
"b  c #6C4B2C",
"n  c #724C2C",
"m  c #7A482A",
"M  c #65522F",
"N  c #78542E",
"B  c #654734",
"V  c #784433",
"C  c #695732",
"Z  c #725731",
"A  c #735C33",
"S  c #7A5D31",
"D  c #56672D",
"F  c #5B6C2D",
"G  c #596434",
"H  c #5A7030",
"J  c #656736",
"K  c #7B6636",
"L  c #6A7432",
"P  c #697735",
"I  c #883C2C",
"U  c #9D3B2E",
"Y  c #A63B2C",
"T  c #B23B2E",
"R  c #C13E2F",
"E  c #E43C2B",
"W  c #E93E2D",
"Q  c #83482A",
"!  c #98492B",
"~  c #88592D",
"^  c #97582D",
"/  c #864C34",
"(  c #994C32",
")  c #885E31",
"_  c #A8442D",
"`  c #A6562B",
"'  c #B8582A",
"]  c #AC4833",
"[  c #B74831",
"{  c #9D632E",
"}  c #836433",
"|  c #896A35",
" . c #966B35",
".. c #897736",
"X. c #977638",
"o. c #A4642E",
"O. c #B9682E",
"+. c #A76A31",
"@. c #B56F30",
"#. c #A87938",
"$. c #BA7532",
"%. c #D3472C",
"&. c #DA5529",
"*. c #CE4833",
"=. c #D54230",
"-. c #CC5431",
";. c #E4422E",
":. c #E44D2E",
">. c #E45A29",
",. c #E64732",
"<. c #EA4C34",
"1. c #EA5739",
"2. c #C6662D",
"3. c #DB682C",
"4. c #CD732F",
"5. c #D9752F",
"6. c #C77831",
"7. c #D67B32",
"8. c #E96A2C",
"9. c #EA742E",
"0. c #ED7A2F",
"q. c #E96836",
"w. c #E67F31",
"e. c #EB7C30",
"r. c #8E714F",
"t. c #AA704A",
"y. c #B17E43",
"u. c #D45E41",
"i. c #C6674B",
"p. c #EA6A48",
"a. c #EA714D",
"s. c #E87857",
"d. c #C77D61",
"f. c #71852E",
"g. c #678631",
"h. c #6B8333",
"j. c #768937",
"k. c #7A9632",
"l. c #7EA333",
"z. c #788343",
"x. c #97833A",
"c. c #8D9235",
"v. c #A78439",
"b. c #B98838",
"n. c #BC9B3D",
"m. c #87A636",
"M. c #83AB33",
"N. c #8AAC35",
"B. c #92AB39",
"V. c #8BB336",
"C. c #96BB3B",
"Z. c #A5AA36",
"A. c #B2B439",
"S. c #C88835",
"D. c #D68736",
"F. c #C4993B",
"G. c #D79437",
"H. c #ED8332",
"J. c #E38834",
"K. c #ED8C34",
"L. c #F08C34",
"P. c #EA9737",
"I. c #F19837",
"U. c #D5AA3C",
"Y. c #E8A63B",
"T. c #F1A33A",
"R. c #F3AC3D",
"E. c #F4B43F",
"W. c #9AC13E",
"Q. c #A4C73F",
"!. c #C8C43F",
"~. c #8E8243",
"^. c #879443",
"/. c #AC8C4A",
"(. c #8BA74A",
"). c #9ABB45",
"_. c #9EA55F",
"`. c #AAB14D",
"'. c #A9BA52",
"]. c #AAB562",
"[. c #CB934D",
"{. c #EA9A49",
"}. c #F49649",
"|. c #E98852",
" X c #C4A645",
".X c #D2AF55",
"XX c #EDAE49",
"oX c #F4B944",
"OX c #D18B6B",
"+X c #EF8464",
"@X c #F19A78",
"#X c #CEB167",
"$X c #F1B36D",
"%X c #9CC541",
"&X c #A5C845",
"*X c #AECF4D",
"=X c #B3CC4A",
"-X c #B7D555",
";X c #B9D06A",
":X c #C8CA40",
">X c #C2DD56",
",X c #DDDE53",
"<X c #E5C94E",
"1X c #F6C448",
"2X c #E8C651",
"3X c #F9D654",
"4X c #F6E358",
"5X c #DAD668",
"6X c #CFD371",
"7X c #F8D766",
"8X c #F6CB70",
"9X c #C6E468",
"0X c #CBE877",
"qX c #DCEC79",
"wX c #F8E76A",
"eX c #EFEC7F",
"rX c #FAE577",
"tX c #DCA284",
"yX c #E5AA83",
"uX c #F2A789",
"iX c #F4BEA7",
"pX c #F8D58C",
"aX c #DAEB81",
"sX c #FBE88A",
"dX c #E2EE92",
"fX c #FAE999",
"gX c #FDF49A",
"hX c #F6C7AD",
"jX c #FDF7AB",
"kX c #F6F7B7",
"lX c #FBDAC8",
"zX c #FDF0CB",
/* pixels */
"& ^.-XW.H + + o - ].'.g +   i #X7XS.<   g %Xk.& o X * C + X # [.fXI.4.1 X + + Z i X X O o X S E.T.e.",
"P dXdX&XM.t X   G aX>Xm.q . /.gXrXT.{ + % g t +     + + + X 4 XXoXK.3.u X + + + + + & + X X > 6.0.9.",
"c.qX9XQ.M.F + X s W.C.N.g + n.3X1XI.@.# + +     i C + + < X v P.K.9.2.> #  .* O   l 6Xv.* X X > m N ",
"P &XW.V.l.F + + + D k.k.t X K T.I.H.) O   . X   S #.+ + + X * +.7.6.b + + 4 + X   x.rXXXv X + & O X ",
"e m.V.M.k.t     X + - - + X + ) $.) & # r.y.c . # # + + O # + + > # X + O   r J * N G.$.>   < X.* X ",
"* t P P s + - K < X X + + X - < + +   Z pX$X3.5 X X k A X S N   + z q + + K 5X4Xn.r > *   X + < + X ",
"r X + + X   | oXo.+ X i r   } }   +   ) }.e.>.Q X X r p   > > X - ).g.X e 5XzXwX<Xx.+ + & + + e f & ",
"  X < & O X b 4.~ + < # +   # #   < < 4 3.8.3.8 O * + X , c ; O + a q   l ,XeX,X!.A.e * l   e -X*XF ",
"z & & + # < + * + + i + + J P % X & & + 2 Q c + + S * $ OX@X[ $ X X X X r U.:X:XA.Z.y o + X y &XC.f.",
"-XF X X < K + X + 4 4 + & '.).w X O X X X X X + + + O 3 s.s.:.9 X O + * + ..A.A.Z.Z.- X + + + F h.s ",
"N.D + + + # + X u yX|.Q + g D & X O - h - + + j.e X O $ [ ;.%.3 X X *  .# - c.Z.Z.f + X A A X + + o ",
"q % X o + z.e X / }.8.' # X + + + P ;X*XV.g + g - X + O $ 7 2 + X X + * + X + e - o   X < < O   o O ",
"X * & O + z = X 2 2.3.! + + + X s 0XkX9X%Xl.- X X < X.> X     + - z % X o + < X   - P q X O   1 t.Q ",
"r [.+.+ X X X O X , x # * M +   P 0X0X*XC.M.s X X <  .* + r &   j.=Xg X X   + X   z &XD X # . t.$Xq.",
"u 7.O.#   o X & < O X X + * + X H %X&XC.M.M.s X O   o O + | 1   D k.s   < ..v.M + & d - X X + ] 1.:.",
"+ , > & ~.P + v #.# X + + X X X q l.V.M.M.h.& X $ B 5 + O + + X + & + < #XsX1XG.u X X X < * X 2 _ _ ",
"<     f 5X`.e # > & f + X r < X O q F P D & X . t.hXq.I + O + & + X   x.jXfXoXL.{ + + O < * X X + + ",
"G.p   - c.c.= X X - P & X i r X X X X + X o O ; |.$Xq.%.> X e ^.e X + b.3X1XT.H.@.+ + + X + + o + x ",
"I.7.u X & & > 4 # O + O + X o + < i # + + o X $ -.q.:.%.> O + f & * +  .T.I.e.e.) X p p X 1 i X   # ",
"K.9.^ O X B OXs.] ; X + + +   k #X{.` $ X # > + I &.&.Q o X X   # X.i > $.H.H.+.* X M u X + # ; c V ",
"e.9.^ O @ d.lX+X<._ # + K 1 o y.pX|.>.m X # 1 X + , , + r ..x.M + > # X * n v # X X X X + X 5 OXuXa.",
"9.8.n   2 s.uX+X<.;.7 X - # + o.H.>.&.Q X # 2 ; X X   l 5XgX3XY.S X O + + X X + z G & X O $ i.lXiXa.",
"0.o.# X , 1.p.1.;.;.9 X & + X 5 2.&.' > o r.yX[ ;   &  XjXjX3XR.D.* X Z } +   G 9X&Xh.% X 2 u.@X+X1.",
"m > # + # ] <.;.W =.: O * + X X * 3 $ X # i.+X<.9 X < <XwX4X1XR.D.1 X < 1 +   j.-XC.l.t X ; *.1.<.;.",
"X X * + O ; U =.=.9 + + + B V # X X + o + ! ,.%.2 X & F.1X1XE.I.D.* o X + + X g N.M.k.= X + I ;.;.W ",
"o + 1 + + O + : : + + X B yXp.I o * 1 o + # 3 : + . . v Y.R.T.P.N X + X * i X + s D q o   X + 9 Y Y ",
"X < X.* + # + O X X X X 0 a.1.Y + + + + X   X X . K y.4 i  .#.v o i v.} + + O X X o X + s t + X + + ",
"# + * + r X.1 + *  .x X $ Y *.7 O + + + 6 / 2 o # [.}.!   o o   C .X1XP.n X # < + + X t =XB.q X + + ",
"+ X X # ..2XZ   4 D.! o O + # X r X.# , tX@X-., + m -.8 X + X r 5XjX2XI.4.> r #.$ O X e C.N.g X r M ",
"X X + + i X.1 & + > # + + + + X * S + 3 a.p.,.9 X + # o   < * X.wX7XR.K.e.b + > + + + + s F = X & * ",
"* i + O + # & i + X # + + r r X + X O $ Y ;.*.2 O + & - + + # b.oXR.K.e.5.i X   + + + + + X X + O + ",
"* p X + # + X +   v #X^ + + + X X X + X # 7 , . O & _.'.F + X ) J.H.e.0.{ + + z.h.%   k X.+ X X X t ",
"X X 5 t.u.] 2 o o o.}.2.$ X X < K i + * u + O + X t ;X*Xm.e X + 5 ^ 2.{ * X q ).M.q X r Z + + = + & ",
"X , OXhXs.<.*., O 8 ' m + X - #XwXY.M > Z + & Z + = k.M.k.- X + X + # + O + + d d + X X X O + g & X ",
"X / uXhXs.<.<.I O + # + + + x.gXsXE.6.* X + + - + O e D e o .   O +     # } * X X X < p + + X   X X ",
"o ( +Xs.1.;.W _ + + + + o * .XwX3XE.J.u X X   X + + + X   r /.) # X A p + } * + q & i S + + 1  .~ > ",
"X 9 1.<.E E W ! +   h ^.& < Y.E.T.I.w.x   e P e   | S X   /.8XK.Q X p r X     P ;Xm.= o X * .XpXH.' ",
"X $ [ W E W =.2 O + t h.& +  .P.L.H.6.* & ].qXm.& i 1 O + { L.0.` +   X + + . (.0XW.D X X i XXXX9.8.",
"# o : U R T 7 o + # O X X O + u +.6.b X e =X=XN.t   X + X > ` 2.5 & J = O + + g.V.M.d X X > D.0.9.3.",
"..+ X o # # X X X + X < p + .   + * + o & j.m.f.& X X # # X + #   z =XP + X   = d g + X X X x O.O.c ",
"r + + < + X + h G &   } b.# + &     X + o & e & X + Z  XF.v o X X = P s + * *   X X + + # * O # # X ",
"  X + p #   G 0X-XP + * 1 . + . # 1 & X + X X X   K 7XsX1XD.i X o X o X i .X Xn + X i i # > + + X + ",
"y z & X + o j.9X%Xk.- X X + X < `.2Xb.1 X < p X * .XjXfX1XL.+.+ # 1 o X X.7XXX5.x X + .   X O + < # ",
"6X-Xh.+ + X d V.M.j.& X + # o x.gX7XI.+.+ 1 Z X p 2XrX3XoXL.6.# + & + X | I.H.9.O.+ X j  .~ $ X & + ",
"-XW.l.- o + + a F e o X 1 ) # n.3XoXK.$.+ X     i XXoXoXT.L.o.+ X + A * * ^ O.2.m + > #X8X9.` # X X ",
"M.l.P + . & + o o X X X + * + | T.I.H.) O + k p & b.R.I.H.D.1 + i # - + X + # # + X u {.}.8.&., + i ",
"q t %   C  Xv X o . * + X X O # N @.^ &   # [.D.; i S.K.D.v X * v.1   & = + + o + + > 4.9.8.' # # ^ ",
"X + +   X.XX~ X + r..X{ # O X X X + + O + + b m .   * x < X   + & + = _.'.D + + + + o 8 ` ! > X + # ",
"  C v   > n > X 1 $X8X9.x X i *   & - + + < + O + & # X X e P q X   J qX>XN.q X O + . . + + O # + O ",
"O < * X X X + X 4 D.e.9.b + X.M . _.'.s # } * X 1 /.$.2 + ^.-XP X X P =XQ.N.t X & + + r # + + + + + "
};
