/* XPM */
static char *e[] = {
/* columns rows colors chars-per-pixel */
"50 50 185 2 ",
"   c #2D0718",
".  c #2E091B",
"X  c #30071A",
"o  c #320A1D",
"O  c #3F0D24",
"+  c #430D26",
"@  c #470F29",
"#  c #4B0E2A",
"$  c #55092E",
"%  c #411025",
"&  c #46132A",
"*  c #4C142D",
"=  c #5C0732",
"-  c #5C0832",
";  c #4E1630",
":  c #521631",
">  c #561834",
",  c #5B163B",
"<  c #5B1A3E",
"1  c #640D36",
"2  c #6D153E",
"3  c #59243B",
"4  c #61223C",
"5  c #68223D",
"6  c #6F1740",
"7  c #641B40",
"8  c #6A1F45",
"9  c #562544",
"0  c #5A2445",
"q  c #5A2847",
"w  c #562C49",
"e  c #592B49",
"r  c #473B4E",
"t  c #57314D",
"y  c #473950",
"u  c #4B3C53",
"i  c #5B3652",
"p  c #5D3D56",
"a  c #5F3F58",
"s  c #662245",
"d  c #692245",
"f  c #682749",
"g  c #6C2C4D",
"h  c #632B47",
"j  c #762B47",
"k  c #7A254B",
"l  c #732A4E",
"z  c #7D294D",
"x  c #762147",
"c  c #752C50",
"v  c #6D3050",
"b  c #613A57",
"n  c #663C5A",
"m  c #683D5B",
"M  c #733051",
"N  c #783E5E",
"B  c #4E4056",
"V  c #5E4057",
"C  c #524459",
"Z  c #5F4158",
"A  c #564C5B",
"S  c #584B5F",
"D  c #5C515E",
"F  c #62425A",
"G  c #66495F",
"H  c #5B4F61",
"J  c #5E5163",
"K  c #654B60",
"L  c #684B60",
"P  c #714462",
"I  c #625464",
"U  c #6E5467",
"Y  c #645768",
"T  c #6F5568",
"R  c #665A6A",
"E  c #6A5E6C",
"W  c #705668",
"Q  c #735C6D",
"!  c #6C606E",
"~  c #75606E",
"^  c #6F6371",
"/  c #726572",
"(  c #796673",
")  c #756A75",
"_  c #7C6A76",
"`  c #776C78",
"'  c #796E78",
"]  c #7C717C",
"[  c #802A51",
"{  c #9B385F",
"}  c #9A365D",
"|  c #8B3559",
" . c #973A60",
".. c #9E3A61",
"X. c #A23B62",
"o. c #B53D69",
"O. c #82455D",
"+. c #894063",
"@. c #9B4164",
"#. c #954C6A",
"$. c #975071",
"%. c #8B5777",
"&. c #AC4669",
"*. c #B9416B",
"=. c #A84A71",
"-. c #AD5479",
";. c #A95875",
":. c #B05076",
">. c #B8597E",
",. c #B4567B",
"<. c #816E7A",
"1. c #82747E",
"2. c #82787F",
"3. c #A8627C",
"4. c #C44973",
"5. c #C44772",
"6. c #D24D7A",
"7. c #CD507A",
"8. c #C5587E",
"9. c #B95C82",
"0. c #B65A80",
"q. c #847680",
"w. c #857A82",
"e. c #897D85",
"r. c #AB6D8E",
"t. c #A76485",
"y. c #AC7090",
"u. c #B37495",
"i. c #DB5985",
"p. c #DC5381",
"a. c #E85E8B",
"s. c #D47294",
"d. c #E8608C",
"f. c #E3648E",
"g. c #EB6692",
"h. c #EC6994",
"j. c #EC6E98",
"k. c #F26F9A",
"l. c #EF719B",
"z. c #F5759F",
"x. c #F777A1",
"c. c #F877A1",
"v. c #F778A2",
"b. c #FA7AA5",
"n. c #8B8187",
"m. c #8E8489",
"M. c #92858A",
"N. c #958B8E",
"B. c #968C8F",
"V. c #958C8F",
"C. c #93888D",
"Z. c #998C8F",
"A. c #988B8F",
"S. c #968C90",
"D. c #998C90",
"F. c #998F91",
"G. c #9A8E91",
"H. c #9E9395",
"J. c #9F9596",
"K. c #9C9294",
"L. c #A09697",
"P. c #A09797",
"I. c #A19798",
"U. c #A59C9B",
"Y. c #A69D9B",
"T. c #A69D9C",
"R. c #A79E9D",
"E. c #A59C9B",
"W. c #A89F9D",
"Q. c #A89F9E",
"!. c #A8A09D",
"~. c #A9A09E",
"^. c #A9A19E",
"/. c #A9A09E",
"(. c #AAA19F",
"). c #AAA29F",
"_. c #AAA39F",
"`. c #A9A29E",
"'. c #A9A19E",
"]. c #ABA2A0",
"[. c #ACA3A2",
"{. c #ED8EAF",
"}. c #FA83AB",
"|. c #FB8AB0",
" X c #F694B6",
/* pixels */
"S ` ` ` E C ` w.n.N.N.N.N.N.N.N.m.m.m.m.m.N.N.e.w.w.w.2.` ] m.m.m.S.G.G.G.G.S.m.m.m.n.` ` ` ` ] w.J ",
"^ (.(.J.] w.(.(.(.(.(.(.(.(.(.(.(.(.(.(.(.(.(.(.(.(.(.(.T.T.(.(.(.(.(.(.(.(.(.(.(.(.(.(.(.(.(.(.(.! ",
"^ W.N.e.T.T.(.(.(.(.(.(.(.(.(.(.(.(.(.(.(.(.(.(.(.(.(.(.(.(.(.(.(.(.(.(.(.(.(.(.(.(.(.(.(.(.(.(.W.! ",
"S ] w.T.(.(.(.(.(.(.(.(.(.(.(.(.(.(.(.(.(.(.(.(.(.(.(.(.(.(.(.(.(.(.(.(.(.(.(.(.(.(.(.(.(.(.(.(.(.! ",
"E P.T.(.(.(.(.(.(.(.(.(.(.(.(.(.(.(.(.(.(.(.(.(.(.(.(.(.(.(.(.(.(.(.(.(.(.(.(.(.(.(.(.(.(.(.(.(.(.! ",
"` (.(.(.(.(.(.(.(.(.(.(.(.(.(.(.(.(.(.(.(.(.(.(.(.(.(.(.(.(.(.(.(.(.(.(.(.(.(.(.(.(.(.(.(.(.(.(.T.H ",
"` (.(.(.(.(.(.(.(.(.(.(.(.(.(.(.(.(.(.(.(.(.(.(.(.(.(.(.(.(.(.(.(.(.(.(.(.(.(.(.(.(.T.(.(.(.(.(.J.C ",
"` (.(.(.(.(.(.(.(.(.(.(.(.(.(.(.(.(.(.(.(.(.(.(.(.(.(.(.(.(.(.(.(.(.(.(.(.(.(.(.(.J.G.(.(.(.(.(.T.J ",
"` (.(.(.(.(.(.(.(.(.(.(.(.(.(.(.(.(.(.(.(.(.(.(.(.(.(.(.(.(.(.(.(.(.(.(.(.(.(.(.G.N.T.(.(.(.(.(.T.I ",
"` (.(.(.(.(.(.(.(.(.(.(.(.(.(.(.(.(.W.(.(.(.(.(.(.(.(.(.(.(.(.(.(.(.(.(.(.(.T.N.M.(.(.(.(.(.(.(.T.I ",
"w.(.(.(.(.(.(.(.(.(.(.J._ ( ( ( ( ( / 1.e.e.1.1.1.1.1.1._ 1.q.<._ _ _ _ ` M.N.P.T.(.(.(.(.(.(.(.T.E ",
"e.].(.(.(.(.(.(.(.(.(.A.p e e e e e 9 9 q q 0 0 0 0 0 0 9 0 0 0 0 0 0 0 w T I.(.(.(.(.(.(.(.(.(.T.! ",
"e.(.(.(.(.(.(.(.(.(.(.A.p < - - - - - - - - - - = - - - - - = = = = - = , T T.(.(.(.(.(.(.(.(.(.T.E ",
"e.(.(.(.(.(.(.(.(.(.(.A.p < - - $ $ $ $ $ $ $ $ $ $ $ $ $ $ $ $ $ $ $ - , T T.(.(.(.(.(.(.(.(.(.T.E ",
"e.].(.(.(.(.(.(.(.(.(.A.p < - + o o o o o o o o o o o o o o o o o o o # , T T.(.(.(.(.(.(.(.(.(.(.! ",
"e.(.(.(.(.(.(.(.(.(.(.A.a s 1 + . . . . . . . . . . . . . . . . . . . + 7 T T.(.(.(.(.(.(.(.(.(.(.! ",
"] (.(.(.(.(.(.(.(.(.(.G.Z f 2 + . . . . . . . . . . . . . . . . . . . # d W T.(.(.(.(.(.(.(.(.(.(.! ",
"^ (.(.(.(.(.(.(.(.(.(.G.Z s 6 @ . . . . . . . . . . . . . . . . . . . * d W T.(.(.(.(.(.(.(.(.(.(.! ",
"/ (.(.(.(.(.(.(.(.(.(.G.V s 2 + . . . . . . . . . . . . . . . . . . . * d W T.(.(.(.(.(.(.(.(.(.(.! ",
"` (.(.(.(.(.(.(.(.(.(.J.L s 2 + . . . . . . . . . . . . . . . . . . . * 8 W T.(.(.(.(.(.(.(.(.(.(.! ",
"` (.(.(.(.(.(.(.(.(.(.T.T s 2 + . . . . . . . . . . . . . . . . . . . # 8 W T.(.(.(.(.(.(.(.(.(.(.^ ",
"/ (.(.(.(.(.(.(.(.(.(.J.G s 2 O . . . . . . . . . . . . . . . . . . . # 7 L T.(.(.(.(.(.(.(.(.(.(.^ ",
"^ (.(.(.(.(.(.(.(.(.(.J.L g 2 O . . . . . . . . . . . . . . . . . . . * 8 W W.(.(.(.(.(.(.(.(.(.(.^ ",
"` (.(.(.(.(.(.(.(.(.(.J.L c x % . . . . . . . . . . . . . . . . . . . : c Q T.(.(.(.(.(.(.(.(.(.(.^ ",
"e.(.(.(.(.(.(.(.(.(.(.J.F c z & . . . . . . . . . . . . . . . . . . . > c W T.(.(.(.(.(.(.(.(.(.(./ ",
"e.(.(.(.(.(.(.(.(.(.(.J.L M z * . . . . . . . . . . . o o . . . . . . > j W T.(.(.(.(.(.(.(.(.(.(./ ",
"e.(.(.(.(.(.(.(.(.(.(.J.F g z * . . . . . . . . . . . . . . . . . . . > j T T.(.(.(.(.(.(.(.(.(.(.^ ",
"1.(.(.(.(.(.(.(.(.(.(.G.p f k & . . . . .     . . . . . X   . o . o . > j W T.(.(.(.(.(.(.(.(.(.(./ ",
"^ (.(.(.(.(.(.(.(.(.(.N.p g z * . . . . o h #.@.5 % j ;.3.O.*   . . . * j W T.(.(.(.(.(.(.(.(.(.(.^ ",
"^ (.(.(.(.(.(.(.(.(.(.N.Z g z * . . . * -.{.|.b.f.*.l.|.|. Xs.j o . . : j W T.(.(.(.(.(.(.(.(.(.T.E ",
"^ (.(.(.(.(.(.(.(.(.(.J.F g k * . . * 8.b.b.b.b.j.i.b.b.b.b.}.j.z o . : j W T.(.(.(.(.(.(.(.(.(.T.E ",
"^ (.(.(.(.(.(.(.(.(.(.J.Z g k * . o &.b.b.b.b.b.g.i.b.b.b.b.b.x.7.+   > j W T.(.(.(.(.(.(.(.(.(.T.E ",
"^ (.(.(.(.(.(.(.(.(.(.J.Z g k s 3 3 7.c.b.b.b.b.j.j.b.b.b.b.b.g.*.4 3 j j W T.(.(.(.(.(.(.(.(.(.T.R ",
"^ (.(.(.(.(.(.(.(.(.(.J.Z g [ -.>.:.o.g.v.b.b.b.b.b.b.b.b.x.j.4...,.>.=.c W T.(.(.(.(.(.(.(.(.(.T.R ",
"^ (.(.(.(.(.(.(.(.(.(.J.F g @.9.9.9.=.5.j.z.b.b.b.b.b.b.x.j.6.{ -.9.9.>.+.W T.(.(.(.(.(.(.(.(.(.T.R ",
"^ (.(.(.(.(.(.(.(.(.(.J.V N t.u.u.u.r.$.4.a.k.b.b.b.b.z.j.6.#.t.y.r.r.r.%.W T.(.(.(.(.(.(.(.(.(.T.R ",
"^ (.(.(.(.(.(.(.(.(.(.J.p b P P P P m b h { 6.a.g.g.a.p.o.g i n n n n n i T T.(.(.(.(.(.(.(.(.(.T.R ",
"^ (.(.(.(.(.(.(.(.(.(.J.F i i p F F F p i t v | ..X.} M w p F F F F F F F Q T.(.(.(.(.(.(.(.(.(.T.R ",
"^ (.(.(.(.(.(.(.(.(.T.T.G.M.M.A.G.G.G.M.M.M.M.M.M.M.M.M.N.G.G.G.G.G.G.G.G.J.(.(.(.(.(.(.(.T.(.T.N.C ",
"/ (.(.(.(.(.(.(.(.(.T.W.(.(.(.(.(.(.(.(.(.(.(.(.(.(.(.(.(.(.(.(.(.(.(.(.(.(.(.(.(.(.(.(.(.m.M.J.e.u ",
"/ (.(.(.(.(.(.(.T.T.(.(.(.(.(.(.(.(.(.(.(.(.(.(.(.(.(.(.(.(.(.(.(.(.(.(.(.(.(.T.T.(.(.(.(.] M.N./ u ",
"H J.(.(.(.(.(.T.T.(.(.(.(.(.(.(.(.(.(.(.(.(.(.(.(.(.(.(.(.(.(.(.(.(.(.(.(.(.(.(.T.(.(.(.(.] q.m.Q u ",
"B G.(.(.(.(.(.(.(.(.(.(.(.(.(.(.(.(.(.(.(.(.(.(.(.(.(.(.(.(.(.(.(.(.(.(.(.(.(.(.(.(.(.(.T.n.T.]._ u ",
"B J.(.(.(.(.(.(.(.(.(.(.(.(.(.(.(.(.(.(.(.(.(.(.(.(.(.(.(.(.(.(.(.(.(.(.(.(.(.(.(.(.(.(.T.N.].]._ u ",
"B J.(.(.(.(.(.(.(.(.(.(.(.(.(.(.(.(.(.(.(.(.(.(.(.(.(.(.(.(.(.(.(.(.(.(.T.(.(.(.(.(.(.(.T.N.].T.~ u ",
"C J.(.(.(.(.(.(.(.(.(.(.(.(.(.(.(.(.(.(.(.(.(.(.(.(.(.(.(.(.!.T.T.P.J.J.n.J.P.T.T.(.T.T.J.` S.e.L u ",
"C J.(.(.(.(.(.(.(.(.(.(.(.(.(.(.(.(.(.(.(.(.(.(.(.(.(.(.(.T.J.J.n.` 1.m.N.] e.S.J.].J.w.1.] / L C u ",
"C J.(.(.(.(.(.(.(.(.(.(.(.(.(.(.(.(.(.(.(.(.(.(.(.(.(.(.(.(.(.(.(.N.J.].].1.m.W.T.J.G.e.( _ / ~ I u ",
"C S.T.T.T.T.T.(.(.(.(.(.(.(.(.(.(.(.(.(.(.(.T.T.T.T.T.T.(.(.(.(.(.m.e.n.1.I E _ / / ~ Q q.e.I D S r ",
"u J I J J R / / / ` / / / ] w.w.2.2.2.2.1.` E E I J J E / ` _ _ / H u u y u u u u C C C ^ ] S D S u "
};
